<svg width="16" height="16" viewBox="0 0 16 16" fill="none" xmlns="http://www.w3.org/2000/svg">
<path fill-rule="evenodd" clip-rule="evenodd" d="M0.285102 7.29154C0.194033 7.38655 0.122646 7.49859 0.0750369 7.62122C-0.0250123 7.86444 -0.0250123 8.13724 0.0750369 8.38046C0.122646 8.50309 0.194033 8.61513 0.285102 8.71014L4.28635 12.7062C4.54009 12.9596 4.90992 13.0586 5.25653 12.9658C5.60314 12.873 5.87388 12.6027 5.96675 12.2565C6.05963 11.9103 5.96053 11.541 5.70679 11.2876L3.40608 8.99985H14.9997C15.5521 8.99985 16 8.55258 16 8.00084C16 7.4491 15.5521 7.00183 14.9997 7.00183L3.40608 7.00183L5.70679 4.7141C5.89616 4.52652 6.00268 4.27118 6.00268 4.0048C6.00268 3.73843 5.89616 3.48309 5.70679 3.29551C5.51897 3.10638 5.26329 3 4.99657 3C4.72985 3 4.47417 3.10638 4.28635 3.29551L0.285102 7.29154Z" fill="#131313"/>
</svg>
