<svg width="12" height="12" viewBox="0 0 12 12" fill="none" xmlns="http://www.w3.org/2000/svg">
<path fill-rule="evenodd" clip-rule="evenodd" d="M11.7862 6.56676C11.8545 6.49076 11.908 6.40113 11.9437 6.30303C12.0188 6.10845 12.0188 5.8902 11.9437 5.69563C11.908 5.59752 11.8545 5.5079 11.7862 5.43189L8.78524 2.23506C8.59493 2.03233 8.31756 1.95316 8.0576 2.02736C7.79764 2.10156 7.59459 2.31787 7.52494 2.5948C7.45528 2.87173 7.5296 3.16721 7.71991 3.36993L9.44544 5.20012L0.750234 5.20012C0.335891 5.20012 0 5.55794 0 5.99933C0 6.44072 0.335891 6.79853 0.750234 6.79853L9.44544 6.79853L7.71991 8.62872C7.57788 8.77879 7.49799 8.98306 7.49799 9.19616C7.49799 9.40926 7.57788 9.61353 7.71991 9.7636C7.86077 9.9149 8.05253 10 8.25257 10C8.45261 10 8.64437 9.9149 8.78524 9.7636L11.7862 6.56676Z" fill="#001E50"/>
</svg>
