<svg width="16" height="16" viewBox="0 0 16 16" fill="none" xmlns="http://www.w3.org/2000/svg">
<path fill-rule="evenodd" clip-rule="evenodd" d="M15.7149 8.7793C15.806 8.67479 15.8774 8.55155 15.925 8.41666C16.025 8.14912 16.025 7.84903 15.925 7.58149C15.8774 7.4466 15.806 7.32336 15.7149 7.21885L11.7137 2.82321C11.4599 2.54446 11.0901 2.43559 10.7435 2.53762C10.3969 2.63965 10.1261 2.93707 10.0332 3.31785C9.94037 3.69863 10.0395 4.10491 10.2932 4.38366L12.5939 6.90016L1.00031 6.90016C0.447855 6.90016 0 7.39216 0 7.99907C0 8.60599 0.447855 9.09799 1.00031 9.09799L12.5939 9.09799L10.2932 11.6145C10.1038 11.8208 9.99732 12.1017 9.99732 12.3947C9.99732 12.6877 10.1038 12.9686 10.2932 13.1749C10.481 13.383 10.7367 13.5 11.0034 13.5C11.2702 13.5 11.5258 13.383 11.7137 13.1749L15.7149 8.7793Z" fill="#131313"/>
</svg>
