<svg width="12" height="8" viewBox="0 0 12 8" fill="none" xmlns="http://www.w3.org/2000/svg">
<path fill-rule="evenodd" clip-rule="evenodd" d="M6.60868 7.20221L11.4515 2.1711C11.6138 2.00419 11.7051 1.777 11.7051 1.53998C11.7051 1.30297 11.6138 1.07578 11.4515 0.908873C11.1172 0.56423 10.5773 0.56423 10.243 0.908873L5.95725 5.30887L1.71439 0.908873C1.38008 0.56423 0.84014 0.56423 0.505822 0.908873C0.342232 1.07516 0.24963 1.30243 0.248679 1.53998C0.24963 1.77754 0.342232 2.00481 0.505822 2.1711L5.34868 7.20221C5.51095 7.38462 5.73937 7.48837 5.97868 7.48837C6.21799 7.48837 6.44641 7.38462 6.60868 7.20221Z" fill="white"/>
</svg>
