<svg width="24" height="24" viewBox="0 0 24 24" fill="none" xmlns="http://www.w3.org/2000/svg">
<path fill-rule="evenodd" clip-rule="evenodd" d="M10 2.25H9.966C8.595 2.25 7.519 2.25 6.655 2.32C5.775 2.393 5.048 2.541 4.39 2.877C3.30799 3.42829 2.42829 4.30799 1.877 5.39C1.541 6.048 1.393 6.775 1.321 7.655C1.25 8.519 1.25 9.595 1.25 10.966V13.034C1.25 14.405 1.25 15.481 1.32 16.345C1.393 17.225 1.541 17.952 1.877 18.61C2.42829 19.692 3.30799 20.5717 4.39 21.123C5.048 21.459 5.775 21.608 6.655 21.679C7.519 21.75 8.595 21.75 9.966 21.75H14.034C15.405 21.75 16.481 21.75 17.345 21.68C18.225 21.608 18.952 21.459 19.61 21.123C20.692 20.5717 21.5717 19.692 22.123 18.61C22.459 17.952 22.608 17.225 22.679 16.345C22.75 15.481 22.75 14.405 22.75 13.034V10.966C22.75 9.595 22.75 8.519 22.68 7.655C22.608 6.775 22.459 6.048 22.123 5.39C21.5717 4.30799 20.692 3.42829 19.61 2.877C18.952 2.541 18.225 2.393 17.345 2.321C16.481 2.25 15.405 2.25 14.034 2.25H10ZM5.07 4.213C5.482 4.003 5.99 3.88 6.777 3.816C7.573 3.751 8.587 3.75 10 3.75H14C15.412 3.75 16.427 3.75 17.223 3.816C18.01 3.88 18.518 4.004 18.93 4.213C19.7297 4.62069 20.3797 5.27111 20.787 6.071C20.997 6.482 21.12 6.99 21.184 7.777C21.249 8.573 21.25 9.587 21.25 11V13C21.25 14.412 21.25 15.427 21.184 16.223C21.12 17.01 20.996 17.518 20.787 17.93C20.3795 18.7295 19.7295 19.3795 18.93 19.787C18.518 19.997 18.01 20.12 17.223 20.184C16.427 20.249 15.413 20.25 14 20.25H10C8.587 20.25 7.573 20.25 6.777 20.184C5.99 20.12 5.482 19.996 5.071 19.787C4.27111 19.3797 3.62069 18.7297 3.213 17.93C3.003 17.518 2.88 17.01 2.816 16.223C2.751 15.427 2.75 14.413 2.75 13V11C2.75 9.587 2.75 8.573 2.816 7.777C2.88 6.99 3.004 6.482 3.213 6.071C3.62052 5.27095 4.27095 4.62052 5.071 4.213H5.07ZM6.416 7.376C6.25049 7.26827 6.04917 7.23016 5.85573 7.26996C5.6623 7.30975 5.49237 7.42423 5.38282 7.58855C5.27328 7.75287 5.23296 7.95376 5.27063 8.14762C5.30829 8.34148 5.4209 8.51266 5.584 8.624L6.584 9.291L6.7 9.368C8.199 10.368 9.09 10.962 10.053 11.252C11.3228 11.6345 12.6772 11.6345 13.947 11.252C14.91 10.962 15.801 10.367 17.3 9.368L17.416 9.291L18.416 8.624C18.4991 8.56989 18.5707 8.49983 18.6266 8.41788C18.6824 8.33593 18.7215 8.2437 18.7415 8.14655C18.7615 8.0494 18.762 7.94925 18.743 7.8519C18.724 7.75455 18.6859 7.66193 18.6309 7.5794C18.5759 7.49687 18.505 7.42608 18.4225 7.37112C18.3399 7.31615 18.2473 7.27811 18.1499 7.25919C18.0525 7.24028 17.9524 7.24086 17.8553 7.26091C17.7581 7.28096 17.6659 7.32008 17.584 7.376L16.584 8.043C14.934 9.143 14.237 9.598 13.514 9.816C12.5266 10.1134 11.4734 10.1134 10.486 9.816C9.763 9.598 9.066 9.143 7.416 8.043L6.416 7.376Z" fill="#F7F7F7"/>
</svg>
