<svg width="14" height="14" viewBox="0 0 14 14" fill="none" xmlns="http://www.w3.org/2000/svg">
<path fill-rule="evenodd" clip-rule="evenodd" d="M12.956 9.79993e-05H1.02642C0.755595 -0.00364065 0.494369 0.0997244 0.300223 0.287449C0.106078 0.475173 -0.00507927 0.731875 -0.00878906 1.00107V12.9987C-0.00507927 13.2679 0.106078 13.5246 0.300223 13.7124C0.494369 13.9001 0.755595 14.0035 1.02642 13.9997H12.956C13.2268 14.0035 13.4881 13.9001 13.6822 13.7124C13.8763 13.5246 13.9875 13.2679 13.9912 12.9987V1.00107C13.9875 0.731875 13.8763 0.475173 13.6822 0.287449C13.4881 0.0997244 13.2268 -0.00364065 12.956 9.79993e-05ZM4.23769 11.7178H2.12501V5.41795H4.23769V11.7178ZM3.18135 4.53597C2.57462 4.53597 2.08276 4.04708 2.08276 3.444C2.08276 2.84093 2.57462 2.35203 3.18135 2.35203C3.60354 2.30444 4.01582 2.50154 4.24197 2.85909C4.46811 3.21664 4.46811 3.67137 4.24197 4.02892C4.01582 4.38646 3.60354 4.58357 3.18135 4.53597ZM11.8574 11.7178H9.74473V8.33687C9.74473 7.48989 9.44192 6.93691 8.67431 6.93691C8.18775 6.94045 7.75493 7.24495 7.5898 7.69989C7.53469 7.86441 7.51081 8.03768 7.51938 8.21087V11.7108H5.4067C5.4067 11.7108 5.4067 5.98493 5.4067 5.41095H7.51938V6.29993C7.91051 5.62533 8.64504 5.22121 9.42783 5.24995C10.8363 5.24995 11.8574 6.15293 11.8574 8.09188V11.7178Z" fill="#131313"/>
</svg>
