<svg width="20" height="20" viewBox="0 0 20 20" fill="none" xmlns="http://www.w3.org/2000/svg">
<path fill-rule="evenodd" clip-rule="evenodd" d="M19.7192 18.3139L16.0114 14.6333C18.9998 10.9044 18.5546 5.48809 14.9975 2.29794C11.4404 -0.892216 6.01198 -0.743563 2.63449 2.63649C-0.742999 6.01654 -0.891539 11.4491 2.29619 15.0089C5.48392 18.5687 10.8961 19.0143 14.6222 16.0235L18.3 19.7042C18.4877 19.8935 18.7431 20 19.0096 20C19.2761 20 19.5315 19.8935 19.7192 19.7042C20.0936 19.3165 20.0936 18.7016 19.7192 18.3139ZM9.01555 16.0235C5.15186 16.0235 2.01971 12.889 2.01971 9.0224C2.01971 5.15577 5.15186 2.02125 9.01555 2.02125C12.8792 2.02125 16.0114 5.15577 16.0114 9.0224C16.0114 10.8792 15.2743 12.66 13.9624 13.973C12.6504 15.2859 10.871 16.0235 9.01555 16.0235Z" fill="#131313"/>
</svg>
