<svg width="12" height="12" viewBox="0 0 12 12" fill="none" xmlns="http://www.w3.org/2000/svg">
<path fill-rule="evenodd" clip-rule="evenodd" d="M11.8315 10.9884L9.60683 8.77999C11.3999 6.54261 11.1328 3.29285 8.99851 1.37876C6.86422 -0.53533 3.60719 -0.446138 1.58069 1.58189C-0.445799 3.60993 -0.534923 6.86944 1.37772 9.00534C3.29035 11.1412 6.53764 11.4086 8.77333 9.61413L10.98 11.8225C11.0926 11.9361 11.2459 12 11.4058 12C11.5656 12 11.7189 11.9361 11.8315 11.8225C12.0562 11.5899 12.0562 11.221 11.8315 10.9884ZM5.40933 9.61413C3.09111 9.61413 1.21183 7.73342 1.21183 5.41344C1.21183 3.09346 3.09111 1.21275 5.40933 1.21275C7.72755 1.21275 9.60683 3.09346 9.60683 5.41344C9.60683 6.52753 9.1646 7.59599 8.37741 8.38377C7.59023 9.17156 6.52258 9.61413 5.40933 9.61413Z" fill="white"/>
</svg>
