<svg width="17" height="12" viewBox="0 0 17 12" fill="none" xmlns="http://www.w3.org/2000/svg">
<path fill-rule="evenodd" clip-rule="evenodd" d="M16.9831 4.22918C17.0191 3.1188 16.7916 2.01673 16.3217 1.0253C16.003 0.618496 15.5606 0.343965 15.0716 0.249548C13.0493 0.053689 11.0186 -0.0265871 8.98818 0.00906339C6.9652 -0.0282052 4.94179 0.0494803 2.92655 0.24179C2.52812 0.319146 2.15941 0.518613 1.8654 0.81585C1.21127 1.45973 1.13859 2.5613 1.06591 3.49221C0.960453 5.16595 0.960453 6.84536 1.06591 8.51911C1.08693 9.04306 1.16002 9.56314 1.28395 10.0706C1.37159 10.4624 1.54889 10.8249 1.79999 11.1256C2.096 11.4386 2.4733 11.6494 2.88294 11.7307C4.44989 11.9372 6.02875 12.0227 7.60723 11.9867C10.1511 12.0255 12.3824 11.9867 15.0207 11.7695C15.4404 11.6932 15.8284 11.4821 16.1328 11.1644C16.3362 10.9472 16.4882 10.6812 16.5761 10.3887C16.836 9.53738 16.9637 8.64642 16.9541 7.75111C16.9831 7.31669 16.9831 4.69463 16.9831 4.22918ZM7.34558 8.21656V3.41463L11.6483 5.82723C10.4418 6.54093 8.85008 7.34772 7.34558 8.21656Z" fill="#131313"/>
</svg>
