<svg width="135" height="54" viewBox="0 0 135 54" fill="none" xmlns="http://www.w3.org/2000/svg">
<g clip-path="url(#clip0_1489_8416)">
<path d="M108.449 20.7527L107.116 22.1625C109.268 25.5312 109.566 29.8337 107.57 33.4279L108.3 33.4155C110.781 29.4022 110.744 24.58 108.449 20.7527ZM102.607 21.5625L103.331 20.803C99.7164 17.4685 93.7217 17.5435 90.2312 21.1192C88.1514 23.2471 87.1703 26.0961 87.6432 28.7804L88.3705 28.7581C88.4119 25.0129 91.4843 21.928 95.3596 21.8421C99.3192 21.7334 102.607 24.7575 102.691 28.6071C102.797 32.4667 99.6907 35.656 95.7349 35.7614C93.747 35.8098 91.9462 35.0774 90.617 33.8622L89.5888 34.9136C85.0114 30.7014 84.8362 23.6667 89.1639 19.2357C92.6568 15.6543 98.0042 14.8383 102.333 16.8338L102.39 16.8974L102.946 16.2794C97.4384 13.0901 90.1688 13.9977 85.5329 18.7449C80.055 24.3403 80.307 33.1801 86.0711 38.4883L87.1108 37.4327C89.3873 39.5117 92.0324 40.5527 95.12 40.4658C101.349 40.3016 106.267 35.2724 106.11 29.2299C106.03 26.1939 104.694 23.4802 102.607 21.5625Z" fill="#DC3223"/>
<path d="M31.4507 16.8093H26.2138V37.9725H41.0478V33.8619H31.4512V16.8093H31.4507ZM8.13073 16.8093L0.00244141 37.9725H5.07268C5.99567 34.8283 10.0167 32.4521 13.7606 32.1208L12.989 30.2055C11.4145 29.9995 9.10087 30.251 7.69781 30.8572L11.1245 21.9035L17.7654 37.9725H22.8271L14.0816 16.8093H8.13073ZM60.8815 20.9052H67.8606V37.9725H73.2266V20.9052H80.2399V16.8088H60.882V20.9052H60.8815ZM130.343 16.8093L124.211 24.8526L118.168 16.8093H113.46V37.9725H118.825V25.0415L123.85 31.8815H124.616L129.632 25.0415V37.9725H135.004V16.8093H130.343ZM48.014 22.2386C48.014 20.5378 51.8859 19.0564 57.9249 21.2185L58.2759 17.04C57.32 16.6194 54.6116 15.9136 52.5475 15.9136C48.1483 15.9136 43.1614 17.5279 43.1614 22.7873C43.1614 30.6725 54.9683 27.975 54.6311 32.2788C54.4997 33.9497 52.0002 34.3555 49.889 34.3555C47.4891 34.3555 45.3317 33.8789 43.8715 33.1873L43.3705 37.7271C45.3188 38.3537 47.8501 38.6627 49.889 38.6627C54.7554 38.6627 59.5084 37.1342 59.5285 31.4771C59.5375 23.918 48.014 26.1176 48.014 22.2386Z" fill="#1E3246"/>
</g>
<defs>
<clipPath id="clip0_1489_8416">
<rect width="135" height="26.069" fill="white" transform="translate(0 14.3999)"/>
</clipPath>
</defs>
</svg>
