<svg width="176" height="54" viewBox="0 0 176 54" fill="none" xmlns="http://www.w3.org/2000/svg">
<path fill-rule="evenodd" clip-rule="evenodd" d="M17.0425 6.60362C21.2381 4.17789 26.1034 2.78213 31.2958 2.78213H31.3008V0H31.2958C25.5956 0 20.2568 1.53169 15.6523 4.19502C10.9036 6.94289 6.94565 10.9003 4.19613 15.6495C1.53224 20.2535 0 25.5939 0 31.2947H2.78324C2.78324 26.1001 4.1801 21.2354 6.60583 17.0409C9.11002 12.7133 12.7149 9.10726 17.0425 6.60362ZM31.3005 5.07762H31.2961C26.5198 5.07762 22.048 6.36066 18.1905 8.59134C14.211 10.8927 10.8957 14.2092 8.59427 18.1882C6.36138 22.0445 5.07723 26.5185 5.07723 31.2948V31.2959C5.07723 36.0723 6.36138 40.5463 8.59316 44.4021C10.894 48.3816 14.2105 51.698 18.19 54L22.1889 47.0737C19.4222 45.474 17.1191 43.1699 15.5184 40.4049C13.9673 37.7239 13.075 34.6146 13.075 31.2959V31.2948C13.075 27.9756 13.9673 24.8658 15.5184 22.1859C17.1191 19.4204 19.4227 17.1156 22.19 15.5165C24.8688 13.9666 27.9786 13.0753 31.2961 13.0753H31.3005C34.6186 13.0753 37.7284 13.9677 40.4078 15.5188L44.4061 8.5941C40.5509 6.36231 36.0752 5.07817 31.3005 5.07762ZM31.2961 44.4392H31.3005C33.6937 44.4392 35.9359 43.7955 37.8704 42.6754L39.1225 44.8431C36.8211 46.1759 34.1495 46.9423 31.3005 46.9434H31.2961C28.4471 46.9434 25.7772 46.1775 23.4752 44.8464C21.0998 43.4722 19.1205 41.494 17.7463 39.1186C16.4141 36.8161 15.6477 34.1478 15.6477 31.296V31.2949C15.6477 28.4443 16.4141 25.7738 17.7463 23.4718C19.1205 21.0969 21.1009 19.1177 23.4758 17.744L24.7284 19.9128C22.732 21.0665 21.0694 22.7286 19.9151 24.7239C18.7956 26.6579 18.1508 28.9001 18.1508 31.2949V31.296C18.1508 33.6897 18.7956 35.932 19.9129 37.8665C21.0694 39.8601 22.732 41.5244 24.7268 42.6776C26.6607 43.7966 28.903 44.4392 31.2961 44.4392Z" fill="white"/>
<path fill-rule="evenodd" clip-rule="evenodd" d="M62.0066 37.4907H66.5182V24.7819H62.0066V37.4907ZM64.2616 22.686C65.5219 22.686 66.5574 21.6511 66.5574 20.3924C66.5574 19.1309 65.5219 18.0959 64.2616 18.0959C63.0034 18.0959 61.9679 19.1309 61.9679 20.3924C61.9679 21.6511 63.0034 22.686 64.2616 22.686ZM57.0262 37.4905H52.5157V28.4959H51.0531V24.7816H52.5157V20.9646H57.0262V24.7816H59.579V28.4959H57.0262V37.4905ZM45.0552 29.2905C44.8325 28.0771 43.7169 27.2842 42.5024 27.2842C41.1884 27.2842 40.0965 27.9771 39.8247 29.2905H45.0552ZM49.2447 31.8919H39.7501C39.7501 33.7259 40.7171 34.7166 42.5748 34.7166C43.5417 34.7166 44.2358 34.3934 44.7314 33.5518H49.0701C48.3512 36.5495 45.5006 37.9126 42.6002 37.9126C38.3875 37.9126 35.2412 35.5333 35.2412 31.1476C35.2412 26.9112 38.1405 24.36 42.2786 24.36C46.6913 24.36 49.2447 27.0847 49.2447 31.4206V31.8919ZM75.0838 26.3659H75.1341C76.1994 24.9547 77.5129 24.3601 79.149 24.3601C80.9829 24.3601 82.5693 25.1028 83.4866 26.7881C84.3557 25.2028 86.0642 24.3601 87.8004 24.3601C91.0235 24.3601 92.1374 26.4659 92.1374 29.3901V37.4906H87.6258V31.4207L87.6258 31.3221C87.6271 30.0033 87.629 27.9523 85.7675 27.9523C83.686 27.9523 83.6098 29.9089 83.6098 31.4207V37.4906H79.0987V31.4207C79.0987 30.0078 79.0987 27.8534 77.0929 27.8534C75.0838 27.8534 75.0838 30.0078 75.0838 31.4207V37.4906H70.5711V24.7817H75.0838V26.3659ZM29.7747 28.4191C29.2945 28.6992 28.8933 29.0993 28.6148 29.5805C28.3446 30.0469 28.1877 30.5879 28.1877 31.1658C28.1877 31.7438 28.3446 32.2853 28.6148 32.7517C28.8933 33.233 29.2945 33.6325 29.7763 33.9132C30.2432 34.1817 30.7836 34.3392 31.3605 34.3392C31.9396 34.3392 32.4811 34.1817 32.9463 33.9115L34.9869 37.4473C33.9216 38.0651 32.6822 38.4204 31.3605 38.4204C30.0393 38.4204 28.8005 38.0651 27.7341 37.4473C26.6345 36.8102 25.7167 35.8935 25.079 34.7928C24.4613 33.7258 24.106 32.487 24.106 31.1658C24.106 29.8441 24.4613 28.6064 25.079 27.5394C25.7167 26.4382 26.6339 25.5209 27.7341 24.8838C28.8005 24.2672 30.0393 23.9119 31.3605 23.9119C32.6822 23.9119 33.9216 24.2672 34.9869 24.8844L32.9463 28.4191C32.4811 28.1489 31.9396 27.9914 31.3605 27.9914C30.7836 27.9914 30.2432 28.1489 29.7747 28.4191Z" fill="white"/>
<path fill-rule="evenodd" clip-rule="evenodd" d="M103.929 19.2698H99.0938L95.8867 37.2467H100.771L102.35 26.8989H102.4L106.735 37.2467H108.687L113.222 26.8989H113.271L114.651 37.2467H119.561L116.704 19.2698H111.819L107.761 28.8777L103.929 19.2698ZM120.405 31.1199C120.405 34.7298 123.17 37.8594 127.099 37.8594C128.46 37.8594 129.916 37.4211 130.825 36.4241V37.2472V37.4544H131.032H135.592H135.8V37.2472V25.0152V24.808H135.592H131.032H130.825V25.0152V25.7102C129.822 24.8254 128.396 24.4024 127.049 24.4024C123.118 24.4024 120.405 27.509 120.405 31.1199ZM126.237 32.9477C125.78 32.4993 125.529 31.869 125.529 31.142C125.529 30.4415 125.78 29.8042 126.239 29.3425C126.697 28.882 127.375 28.5836 128.253 28.5836C129.129 28.5836 129.807 28.8819 130.265 29.3425C130.724 29.8043 130.975 30.4416 130.975 31.142C130.975 31.8689 130.723 32.4992 130.267 32.9477C129.81 33.3959 129.133 33.6782 128.253 33.6782C127.371 33.6782 126.693 33.3958 126.237 32.9477ZM142.697 27.0183H142.648V25.0147H138.087V37.2472H142.648V32.3118C142.648 30.2115 143.274 28.6157 145.804 28.6157C146.506 28.6157 147.106 28.687 147.732 29.0207V24.8495H146.855C145.078 24.8495 143.574 25.517 142.697 27.0183ZM153.381 31.142C153.381 32.6936 154.458 33.8854 156.313 33.8854C158.165 33.8854 159.243 32.6936 159.243 31.142C159.243 29.6412 158.165 28.3764 156.313 28.3764C154.458 28.3764 153.381 29.6412 153.381 31.142ZM164.053 31.142C164.053 35.2922 160.444 37.6522 156.313 37.6522C152.205 37.6522 148.572 35.3143 148.572 31.142C148.572 26.9707 152.179 24.6096 156.313 24.6096C160.444 24.6096 164.053 26.9707 164.053 31.142ZM173.022 28.1386C173.896 28.1386 174.699 28.5199 175.375 28.9973V25.325C174.473 24.8492 173.421 24.6094 172.369 24.6094C168.336 24.6094 165.178 27.3291 165.178 31.2628C165.178 34.9572 168.361 37.652 172.169 37.652C173.271 37.652 174.373 37.4376 175.375 36.9602V33.2884C174.774 33.8145 173.896 34.1234 173.095 34.1234C171.216 34.1234 169.888 32.8829 169.888 31.1196C169.888 29.4266 171.267 28.1386 173.022 28.1386Z" fill="white"/>
<path fill-rule="evenodd" clip-rule="evenodd" d="M98.9206 19.0625H104.07L107.767 28.332L111.682 19.0625H116.882L119.804 37.4538H114.47L113.153 27.5734L108.823 37.4538H106.597L102.457 27.5717L100.949 37.4538H95.6396L98.9206 19.0625ZM99.2677 19.4769L96.1345 37.0394H100.593L102.172 26.6917H102.538L106.873 37.0394H108.552L113.087 26.6917H113.453L114.833 37.0394H119.318L116.528 19.4769H111.956L107.756 29.4232L103.789 19.4769H99.2677ZM127.049 24.6096C123.243 24.6096 120.612 27.6137 120.612 31.1198C120.612 34.6237 123.293 37.6521 127.099 37.6521C128.424 37.6521 129.815 37.2243 130.672 36.2844L131.033 35.8893V37.2471H135.593V25.0151H131.033V26.1691L130.688 25.8655C129.731 25.0215 128.359 24.6096 127.049 24.6096ZM120.198 31.1198C120.198 27.4041 122.995 24.1951 127.049 24.1951C128.289 24.1951 129.603 24.5427 130.618 25.2793V24.6007H136.007V37.6615H130.618V36.9099C129.662 37.717 128.332 38.0666 127.099 38.0666C123.048 38.0666 120.198 34.8358 120.198 31.1198ZM172.369 24.8165C168.431 24.8165 165.386 27.4623 165.386 31.2627C165.386 34.8212 168.453 37.4447 172.169 37.4447C173.201 37.4447 174.229 37.252 175.168 36.8278V33.7055C174.563 34.1052 173.802 34.3305 173.095 34.3305C172.11 34.3305 171.255 34.0047 170.646 33.4339C170.035 32.8623 169.681 32.0556 169.681 31.1196C169.681 29.3014 171.164 27.9313 173.022 27.9313C173.815 27.9313 174.542 28.2239 175.168 28.6114V25.4515C174.323 25.0304 173.348 24.8165 172.369 24.8165ZM164.971 31.2627C164.971 27.1958 168.242 24.4021 172.369 24.4021C173.451 24.4021 174.537 24.6487 175.472 25.1416L175.583 25.1999V29.3971L175.256 29.1665C174.597 28.7014 173.837 28.3457 173.022 28.3457C171.371 28.3457 170.096 29.5516 170.096 31.1196C170.096 31.9468 170.406 32.642 170.929 33.1314C171.453 33.6217 172.202 33.9161 173.095 33.9161C173.85 33.9161 174.679 33.6231 175.239 33.1325L175.583 32.8314V37.0909L175.465 37.1472C174.431 37.6396 173.298 37.8591 172.169 37.8591C168.27 37.8591 164.971 35.093 164.971 31.2627ZM150.765 26.1484C152.226 25.0029 154.209 24.4024 156.314 24.4024C158.416 24.4024 160.399 25.003 161.86 26.1484C163.327 27.2975 164.261 28.9897 164.261 31.1419C164.261 33.284 163.326 34.9706 161.86 36.1166C160.398 37.259 158.416 37.8594 156.314 37.8594C154.223 37.8594 152.24 37.2647 150.775 36.1252C149.306 34.982 148.365 33.2953 148.365 31.1419C148.365 28.9897 149.298 27.2976 150.765 26.1484ZM151.02 26.4746C149.65 27.5488 148.78 29.1228 148.78 31.1419C148.78 33.1609 149.656 34.7293 151.03 35.7981C152.408 36.8706 154.296 37.4449 156.314 37.4449C158.342 37.4449 160.229 36.8653 161.605 35.7901C162.976 34.7186 163.846 33.1501 163.846 31.1419C163.846 29.1229 162.975 27.5488 161.605 26.4746C160.229 25.3967 158.342 24.8168 156.314 24.8168C154.283 24.8168 152.396 25.3967 151.02 26.4746ZM146.856 25.0566C145.133 25.0566 143.707 25.6999 142.877 27.1227L142.817 27.2254H142.441V25.2218H138.294V37.04H142.441V32.3117C142.441 31.2493 142.598 30.271 143.109 29.5556C143.631 28.8253 144.492 28.4084 145.804 28.4084C146.412 28.4084 146.964 28.4607 147.525 28.6937V25.0566H146.856ZM142.856 26.4124C143.801 25.1866 145.23 24.6422 146.856 24.6422H147.94V29.3658L147.635 29.2036C147.052 28.8927 146.491 28.8229 145.804 28.8229C144.586 28.8229 143.87 29.2039 143.446 29.7965C143.012 30.4041 142.856 31.2739 142.856 32.3117V37.4544H137.88V24.8074H142.856V26.4124ZM154.299 29.3425C153.84 29.8041 153.589 30.4414 153.589 31.1419C153.589 31.8689 153.84 32.4992 154.297 32.9476C154.754 33.3957 155.431 33.6782 156.314 33.6782C157.194 33.6782 157.872 33.3958 158.328 32.9476C158.785 32.4992 159.036 31.8689 159.036 31.1419C159.036 30.4415 158.785 29.8042 158.326 29.3424C157.868 28.8819 157.191 28.5836 156.314 28.5836C155.435 28.5836 154.757 28.8819 154.299 29.3425ZM154.005 29.0502C154.549 28.5032 155.337 28.1691 156.314 28.1691C157.289 28.1691 158.076 28.5032 158.62 29.0503C159.163 29.5961 159.451 30.3416 159.451 31.1419C159.451 31.9665 159.163 32.7079 158.618 33.2433C158.073 33.779 157.285 34.0926 156.314 34.0926C155.34 34.0926 154.552 33.7791 154.007 33.2433C153.461 32.7079 153.175 31.9665 153.175 31.1419C153.175 30.3416 153.462 29.5962 154.005 29.0502ZM126.092 29.1964C126.593 28.6926 127.326 28.3764 128.254 28.3764C129.179 28.3764 129.911 28.6926 130.412 29.1964C130.913 29.7001 131.183 30.3915 131.183 31.1419C131.183 31.9177 130.913 32.6036 130.412 33.0955C129.911 33.5874 129.179 33.8854 128.254 33.8854C127.326 33.8854 126.593 33.5874 126.092 33.0955C125.591 32.6036 125.322 31.9177 125.322 31.1419C125.322 30.3915 125.591 29.7001 126.092 29.1964ZM128.254 28.7908C127.424 28.7908 126.801 29.0713 126.386 29.4885C125.969 29.9081 125.737 30.4913 125.737 31.1419C125.737 31.8201 125.97 32.3949 126.383 32.7998C126.794 33.2041 127.417 33.4709 128.254 33.4709C129.088 33.4709 129.71 33.2042 130.122 32.7998C130.534 32.3947 130.768 31.8199 130.768 31.1419C130.768 30.4916 130.536 29.9083 130.118 29.4886C129.703 29.0711 129.081 28.7908 128.254 28.7908Z" fill="white"/>
</svg>
