<svg width="222" height="28" viewBox="0 0 222 28" fill="none" xmlns="http://www.w3.org/2000/svg">
<path d="M214.045 1.91162H188.047V27.0225H214.045V1.91162Z" fill="#1A2C61"/>
<path d="M214.045 12.3701H198.879V27.0223H214.045V12.3701Z" fill="#0090CD"/>
<g opacity="0.92">
<mask id="mask0_1489_2720" style="mask-type:luminance" maskUnits="userSpaceOnUse" x="188" y="1" width="22" height="22">
<path d="M209.317 1.88965H188.036V22.3944H209.317V1.88965Z" fill="white"/>
</mask>
<g mask="url(#mask0_1489_2720)">
<mask id="mask1_1489_2720" style="mask-type:luminance" maskUnits="userSpaceOnUse" x="188" y="1" width="22" height="22">
<path d="M209.317 1.88965H188.036V22.3944H209.317V1.88965Z" fill="white"/>
</mask>
<g mask="url(#mask1_1489_2720)">
<path d="M202.934 1.88965C202.947 2.07398 202.96 2.29781 202.96 2.41631C202.96 10.0442 196.524 16.2654 188.619 16.2654C188.5 16.2654 188.261 16.2522 188.036 16.2522V22.3813C188.248 22.3944 188.486 22.3944 188.619 22.3944C200.019 22.3944 209.317 13.4368 209.317 2.42948C209.317 2.29781 209.303 2.07398 209.303 1.90282H202.934V1.88965Z" fill="#F3FAFE"/>
</g>
</g>
</g>
<path d="M214.071 6.51756C213.806 6.50439 213.501 6.50439 213.369 6.50439C201.955 6.50439 192.671 15.4621 192.671 26.4825C192.671 26.5878 192.684 26.8117 192.684 27.0355H199.027C199.027 26.8117 199.014 26.5878 199.014 26.4825C199.014 18.8547 205.45 12.6334 213.355 12.6334C213.488 12.6334 213.793 12.6466 214.058 12.6598V6.51756H214.071Z" fill="white"/>
<path d="M196.14 20.9199L196.272 21.2228C196.047 21.3149 195.861 21.4598 195.716 21.6309C195.57 21.8021 195.464 22.0127 195.411 22.2497C195.344 22.5131 195.358 22.7632 195.424 23.0134C195.503 23.2636 195.623 23.4742 195.808 23.6454C195.994 23.8166 196.219 23.9351 196.484 24.0009C196.895 24.0931 197.253 24.0404 197.596 23.8297C197.927 23.6191 198.153 23.3031 198.245 22.8949C198.351 22.4341 198.272 22.0127 197.98 21.6199L198.245 21.4093C198.418 21.6199 198.537 21.8701 198.59 22.1334C198.643 22.4099 198.643 22.6864 198.564 22.9893C198.431 23.5554 198.126 23.9636 197.662 24.1984C197.264 24.3959 196.84 24.4486 196.378 24.3301C195.888 24.2116 195.53 23.9482 195.28 23.5401C195.031 23.1319 194.962 22.6711 195.081 22.1598C195.161 21.8569 195.28 21.5936 195.466 21.3829C195.665 21.1854 195.89 21.0274 196.142 20.9221" fill="#008DD1"/>
<path d="M196.14 20.9199L196.272 21.2228C196.047 21.3149 195.861 21.4598 195.716 21.6309C195.57 21.8021 195.464 22.0127 195.411 22.2497C195.344 22.5131 195.358 22.7632 195.424 23.0134C195.503 23.2636 195.623 23.4742 195.808 23.6454C195.994 23.8166 196.219 23.9351 196.484 24.0009C196.895 24.0931 197.253 24.0404 197.596 23.8297C197.927 23.6191 198.153 23.3031 198.245 22.8949C198.351 22.4341 198.272 22.0127 197.98 21.6199L198.245 21.4093C198.418 21.6199 198.537 21.8701 198.59 22.1334C198.643 22.4099 198.643 22.6864 198.564 22.9893C198.431 23.5554 198.126 23.9636 197.662 24.1984C197.264 24.3959 196.84 24.4486 196.378 24.3301C195.888 24.2116 195.53 23.9482 195.28 23.5401C195.031 23.1319 194.962 22.6711 195.081 22.1598C195.161 21.8569 195.28 21.5936 195.466 21.3829C195.665 21.1854 195.89 21.0274 196.142 20.9221L196.14 20.9199Z" stroke="#0090CD" stroke-width="0.29"/>
<path d="M196.843 17.7378L200.59 17.8695L200.431 18.1986L199.187 18.1723L198.537 19.4604L199.306 20.4347L199.134 20.7639L196.803 17.83L196.843 17.7378ZM197.466 18.0933L198.301 19.1576L198.818 18.1328L197.468 18.0933H197.466Z" fill="#008DD1"/>
<path d="M196.843 17.7378L200.59 17.8695L200.431 18.1986L199.187 18.1723L198.537 19.4604L199.306 20.4347L199.134 20.7639L196.803 17.83L196.843 17.7378ZM197.466 18.0933L198.301 19.1576L198.818 18.1328L197.468 18.0933H197.466Z" stroke="#0090CD" stroke-width="0.29"/>
<path d="M198.656 14.8173L199.094 14.317C199.346 14.0405 199.518 13.8561 199.624 13.7771C199.796 13.6586 199.969 13.606 200.167 13.606C200.366 13.606 200.552 13.685 200.711 13.8298C200.857 13.9483 200.95 14.0931 200.989 14.2511C201.042 14.4091 201.042 14.5671 200.989 14.7383C200.936 14.9095 200.817 15.0938 200.631 15.3044L202.618 15.4229L202.339 15.7389L200.353 15.6204L200.234 15.7653L201.425 16.7901L201.199 17.0402L198.656 14.8173ZM199.133 14.7778L200.008 15.5283L200.393 15.0938C200.539 14.9226 200.631 14.791 200.671 14.6725C200.711 14.5671 200.711 14.4486 200.684 14.3433C200.658 14.238 200.592 14.1458 200.499 14.0668C200.419 13.9878 200.313 13.9483 200.207 13.9351C200.101 13.922 199.995 13.9351 199.902 13.9878C199.81 14.0405 199.677 14.1458 199.531 14.317L199.133 14.7778Z" fill="#008DD1"/>
<path d="M198.656 14.8173L199.094 14.317C199.346 14.0405 199.518 13.8561 199.624 13.7771C199.796 13.6586 199.969 13.606 200.167 13.606C200.366 13.606 200.552 13.685 200.711 13.8298C200.857 13.9483 200.95 14.0931 200.989 14.2511C201.042 14.4091 201.042 14.5671 200.989 14.7383C200.936 14.9095 200.817 15.0938 200.631 15.3044L202.618 15.4229L202.339 15.7389L200.353 15.6204L200.234 15.7653L201.425 16.7901L201.199 17.0402L198.656 14.8173ZM199.133 14.7778L200.008 15.5283L200.393 15.0938C200.539 14.9226 200.631 14.791 200.671 14.6725C200.711 14.5671 200.711 14.4486 200.684 14.3433C200.658 14.238 200.592 14.1458 200.499 14.0668C200.419 13.9878 200.313 13.9483 200.207 13.9351C200.101 13.922 199.995 13.9351 199.902 13.9878C199.81 14.0405 199.677 14.1458 199.531 14.317L199.133 14.7778Z" stroke="#0090CD" stroke-width="0.29"/>
<path d="M203.504 14.6458L201.637 11.8194L201.703 11.7799L205.013 12.7126L203.57 10.5554L203.848 10.3711L205.729 13.1997L205.662 13.2392L202.377 12.3176L203.795 14.4483L203.504 14.6458Z" fill="#008DD1"/>
<path d="M203.504 14.6458L201.637 11.8194L201.703 11.7799L205.013 12.7126L203.57 10.5554L203.848 10.3711L205.729 13.1997L205.662 13.2392L202.377 12.3176L203.795 14.4483L203.504 14.6458Z" stroke="#0090CD" stroke-width="0.29"/>
<path d="M207.437 8.83291C207.927 8.68807 208.391 8.72757 208.813 8.95141C209.237 9.17524 209.529 9.53074 209.675 10.0157C209.821 10.4897 209.781 10.9374 209.542 11.3697C209.317 11.8042 208.959 12.0807 208.484 12.2255C208.009 12.3703 207.543 12.3308 207.121 12.0938C206.696 11.87 206.405 11.5145 206.259 11.0559C206.166 10.7399 206.153 10.437 206.219 10.121C206.285 9.80504 206.431 9.54171 206.643 9.30471C206.882 9.08088 207.147 8.92288 207.439 8.83071M207.558 9.14671C207.319 9.21254 207.107 9.34421 206.935 9.54171C206.763 9.72604 206.643 9.94987 206.59 10.2C206.537 10.4502 206.551 10.7004 206.63 10.9637C206.749 11.3455 206.975 11.6352 207.333 11.8195C207.677 12.0039 208.049 12.0434 208.418 11.9249C208.669 11.8459 208.882 11.7142 209.054 11.5299C209.226 11.3455 209.345 11.1217 209.399 10.8847C209.452 10.6345 209.438 10.3844 209.359 10.121C209.279 9.85771 209.147 9.64704 208.961 9.47587C208.775 9.30471 208.563 9.18621 208.298 9.13354C208.046 9.06771 207.794 9.06771 207.556 9.14671" fill="#008DD1"/>
<path d="M207.437 8.83291C207.927 8.68807 208.391 8.72757 208.813 8.95141C209.237 9.17524 209.529 9.53074 209.675 10.0157C209.821 10.4897 209.781 10.9374 209.542 11.3697C209.317 11.8042 208.959 12.0807 208.484 12.2255C208.009 12.3703 207.543 12.3308 207.121 12.0938C206.696 11.87 206.405 11.5145 206.259 11.0559C206.166 10.7399 206.153 10.437 206.219 10.121C206.285 9.80504 206.431 9.54171 206.643 9.30471C206.882 9.08088 207.147 8.92288 207.439 8.83071L207.437 8.83291ZM207.556 9.1489C207.317 9.21474 207.105 9.3464 206.933 9.5439C206.76 9.72823 206.641 9.95207 206.588 10.2022C206.535 10.4524 206.548 10.7026 206.628 10.9659C206.747 11.3477 206.973 11.6374 207.33 11.8217C207.675 12.0061 208.046 12.0456 208.415 11.9271C208.667 11.8481 208.879 11.7164 209.052 11.5321C209.224 11.3477 209.343 11.1239 209.396 10.8869C209.449 10.6367 209.436 10.3866 209.357 10.1232C209.277 9.8599 209.144 9.64924 208.959 9.47807C208.773 9.3069 208.561 9.1884 208.296 9.13574C208.044 9.0699 207.792 9.06991 207.554 9.1489H207.556Z" stroke="#0090CD" stroke-width="0.29"/>
<path d="M210.68 8.52984L210.64 8.20287L212.481 8.00537L212.52 8.33234L211.767 8.41134L212.098 11.4506L211.754 11.4901L211.422 8.45084L210.68 8.52984Z" fill="#008DD1"/>
<path d="M210.68 8.52984L210.64 8.20287L212.481 8.00537L212.52 8.33234L211.767 8.41134L212.098 11.4506L211.754 11.4901L211.422 8.45084L210.68 8.52984Z" stroke="#0090CD" stroke-width="0.29"/>
<g clip-path="url(#clip0_1489_2720)">
<path d="M65.5584 27.6027C63.0972 27.6027 60.8885 27.0144 58.9371 25.8401C56.9833 24.6659 55.4561 23.0774 54.3505 21.0746C53.2474 19.0742 52.6958 16.8826 52.6958 14.4998C52.6958 12.117 53.2474 9.94999 54.3505 7.94962C55.4537 5.94926 56.9833 4.35583 58.9371 3.17425C60.8909 1.99021 63.0972 1.39941 65.5584 1.39941C67.7181 1.39941 69.667 1.82841 71.4075 2.68641C73.1456 3.54441 74.5919 4.72355 75.7441 6.22382C76.8963 7.72409 77.6856 9.42783 78.1146 11.3326H71.0643C70.6035 10.1584 69.8925 9.28075 68.9316 8.69976C67.9706 8.12122 66.8552 7.8295 65.5854 7.8295C64.5362 7.8295 63.5532 8.09671 62.6314 8.62867C61.7097 9.16063 60.9718 9.92792 60.4153 10.9281C59.8589 11.9283 59.5819 13.1197 59.5819 14.5023C59.5819 15.8849 59.8638 17.0787 60.4276 18.0863C60.9914 19.0938 61.7293 19.866 62.6437 20.398C63.5556 20.9299 64.5386 21.1971 65.5854 21.1971C66.4262 21.1971 67.2058 21.0672 67.9192 20.8049C68.6325 20.5426 69.2601 20.1185 69.8018 19.5302C70.3412 18.9418 70.7628 18.1966 71.0643 17.292H78.0926C77.6954 19.2924 76.9257 21.0721 75.7809 22.6288C74.6385 24.1854 73.1873 25.4038 71.4345 26.2863C69.6793 27.1688 67.723 27.6076 65.5633 27.6076L65.5584 27.6027Z" fill="#001E50"/>
<path d="M82.6743 2.18408H100.374V7.49632H89.5359V12.1173H98.7066V16.6205H89.5359V21.5038H100.54V26.816H82.6743V2.18408Z" fill="#001E50"/>
<path d="M110.944 8.09202H104.465V2.18408H124.285V8.09202H117.805V26.816H110.944V8.09202Z" fill="#001E50"/>
<path d="M128.394 2.18408H135.255V26.816H128.394V2.18408Z" fill="#001E50"/>
<path d="M141.697 2.18409H147.843L155.347 13.6175L155.393 13.593L162.922 2.18164H169.043V26.8136H162.635V11.9015H162.61L156.465 21.4302H154.227L148.152 11.877H148.127V26.8136H141.695V2.18409H141.697Z" fill="#001E50"/>
<path d="M29.4711 18.6011H21.2612V26.8109H29.4711V18.6011Z" fill="#EF3346"/>
<path d="M0.735352 10.3916V26.8112H8.94518V18.6014H21.2611V10.3916H0.735352Z" fill="#001E50"/>
<path d="M40.6299 2.18165H21.2612V10.3915H37.6809V26.8111H45.8907V7.43996C45.8907 4.53502 43.5349 2.1792 40.6299 2.1792V2.18165Z" fill="#001E50"/>
</g>
<defs>
<clipPath id="clip0_1489_2720">
<rect width="169.781" height="27" fill="white" transform="translate(0 1)"/>
</clipPath>
</defs>
</svg>
