<svg width="137" height="42" viewBox="0 0 137 42" fill="none" xmlns="http://www.w3.org/2000/svg">
<path fill-rule="evenodd" clip-rule="evenodd" d="M13.2553 5.13615C16.5185 3.24947 20.3026 2.16388 24.3412 2.16388H24.345V0H24.3412C19.9077 0 15.7553 1.19131 12.174 3.26279C8.4806 5.40003 5.40218 8.47802 3.26365 12.1719C1.19174 15.7527 0 19.9064 0 24.3403H2.16474C2.16474 20.3001 3.25119 16.5164 5.13787 13.254C7.08557 9.88809 9.88938 7.08343 13.2553 5.13615ZM24.3449 3.94926H24.3414C20.6265 3.94926 17.1484 4.94718 14.1482 6.68215C11.053 8.47213 8.47441 11.0516 6.68443 14.1463C4.94774 17.1457 3.94896 20.6255 3.94896 24.3404V24.3413C3.94896 28.0562 4.94774 31.536 6.68357 34.5349C8.47312 37.6301 11.0526 40.2096 14.1478 42L17.258 36.6129C15.1062 35.3687 13.3149 33.5766 12.0698 31.426C10.8635 29.3408 10.1694 26.9225 10.1694 24.3413V24.3404C10.1694 21.7588 10.8635 19.3401 12.0698 17.2557C13.3149 15.1047 15.1066 13.3122 17.2589 12.0684C19.3424 10.8629 21.7611 10.1697 24.3414 10.1697H24.3449C26.9256 10.1697 29.3443 10.8638 31.4283 12.0701L34.5381 6.68429C31.5396 4.94846 28.0585 3.94969 24.3449 3.94926ZM24.3414 34.5638H24.3449C26.2062 34.5638 27.9502 34.0631 29.4548 33.192L30.4286 34.878C28.6387 35.9146 26.5607 36.5107 24.3449 36.5115H24.3414C22.1255 36.5115 20.0489 35.9159 18.2585 34.8806C16.4109 33.8117 14.8715 32.2732 13.8027 30.4256C12.7665 28.6347 12.1704 26.5594 12.1704 24.3414V24.3405C12.1704 22.1233 12.7665 20.0463 13.8027 18.2559C14.8715 16.4087 16.4118 14.8693 18.2589 13.8009L19.2332 15.4877C17.6805 16.3851 16.3873 17.6778 15.4895 19.2297C14.6188 20.7339 14.1173 22.4779 14.1173 24.3405V24.3414C14.1173 26.2031 14.6188 27.9471 15.4878 29.4517C16.3873 31.0023 17.6805 32.2968 19.2319 33.1937C20.7361 34.064 22.4801 34.5638 24.3414 34.5638Z" fill="#EF3346"/>
<path fill-rule="evenodd" clip-rule="evenodd" d="M48.2273 29.1595H51.7363V19.2749H48.2273V29.1595ZM49.9812 17.6448C50.9615 17.6448 51.7668 16.8398 51.7668 15.8608C51.7668 14.8797 50.9615 14.0747 49.9812 14.0747C49.0026 14.0747 48.1972 14.8797 48.1972 15.8608C48.1972 16.8398 49.0026 17.6448 49.9812 17.6448ZM44.3537 29.1593H40.8455V22.1636H39.7079V19.2747H40.8455V16.3058H44.3537V19.2747H46.3392V22.1636H44.3537V29.1593ZM35.0429 22.7816C34.8697 21.8378 34.002 21.2211 33.0574 21.2211C32.0354 21.2211 31.1861 21.76 30.9747 22.7816H35.0429ZM38.3014 24.8049H30.9167C30.9167 26.2313 31.6688 27.0019 33.1137 27.0019C33.8657 27.0019 34.4055 26.7505 34.791 26.0959H38.1656C37.6064 28.4274 35.3893 29.4877 33.1334 29.4877C29.8569 29.4877 27.4098 27.6371 27.4098 24.226C27.4098 20.931 29.6648 18.9468 32.8833 18.9468C36.3154 18.9468 38.3014 21.066 38.3014 24.4383V24.8049ZM58.3985 20.5069H58.4376C59.2662 19.4093 60.2877 18.9468 61.5603 18.9468C62.9867 18.9468 64.2205 19.5245 64.9339 20.8352C65.61 19.6022 66.9388 18.9468 68.2891 18.9468C70.796 18.9468 71.6624 20.5847 71.6624 22.859V29.1594H68.1533V24.4384L68.1534 24.3617C68.1543 23.336 68.1558 21.7408 66.708 21.7408C65.0891 21.7408 65.0298 23.2626 65.0298 24.4384V29.1594H61.5211V24.4384C61.5211 23.3395 61.5211 21.6638 59.9611 21.6638C58.3985 21.6638 58.3985 23.3395 58.3985 24.4384V29.1594H54.8885V19.2748H58.3985V20.5069ZM23.158 22.1038C22.7845 22.3217 22.4725 22.6328 22.2559 23.0072C22.0458 23.3699 21.9237 23.7906 21.9237 24.2402C21.9237 24.6897 22.0458 25.1109 22.2559 25.4736C22.4725 25.8479 22.7845 26.1587 23.1593 26.377C23.5224 26.5858 23.9428 26.7083 24.3914 26.7083C24.8418 26.7083 25.263 26.5858 25.6249 26.3757L27.212 29.1258C26.3834 29.6063 25.4194 29.8826 24.3914 29.8826C23.3639 29.8826 22.4003 29.6063 21.5709 29.1258C20.7156 28.6302 20.0018 27.9173 19.5058 27.0612C19.0254 26.2313 18.749 25.2678 18.749 24.2402C18.749 23.2122 19.0254 22.2495 19.5058 21.4196C20.0018 20.5631 20.7152 19.8497 21.5709 19.3542C22.4003 18.8745 23.3639 18.5982 24.3914 18.5982C25.4194 18.5982 26.3834 18.8745 27.212 19.3546L25.6249 22.1038C25.263 21.8936 24.8418 21.7712 24.3914 21.7712C23.9428 21.7712 23.5224 21.8936 23.158 22.1038Z" fill="#1D1D1D"/>
<path fill-rule="evenodd" clip-rule="evenodd" d="M80.8339 14.9875H77.073L74.5786 28.9696H78.3773L79.6056 20.9213H79.6443L83.0158 28.9696H84.5342L88.0613 20.9213H88.1L89.1731 28.9696H92.9916L90.7701 14.9875H86.9701L83.8143 22.4603L80.8339 14.9875ZM93.6483 24.2043C93.6483 27.012 95.7989 29.4462 98.8545 29.4462C99.9134 29.4462 101.046 29.1053 101.753 28.3298V28.97V29.1311H101.914H105.461H105.622V28.97V19.4562V19.2951H105.461H101.914H101.753V19.4562V19.9968C100.972 19.3086 99.864 18.9796 98.8158 18.9796C95.7589 18.9796 93.6483 21.3958 93.6483 24.2043ZM98.1844 25.6259C97.8293 25.2772 97.6339 24.787 97.6339 24.2215C97.6339 23.6767 97.8288 23.181 98.1858 22.8219C98.5419 22.4637 99.0692 22.2317 99.7527 22.2317C100.434 22.2317 100.961 22.4636 101.317 22.8219C101.674 23.181 101.87 23.6768 101.87 24.2215C101.87 24.7868 101.674 25.2771 101.319 25.6259C100.964 25.9745 100.437 26.1941 99.7527 26.1941C99.0664 26.1941 98.5393 25.9744 98.1844 25.6259ZM110.987 21.0142H110.949V19.4558H107.401V28.97H110.949V25.1313C110.949 23.4978 111.435 22.2566 113.403 22.2566C113.949 22.2566 114.416 22.3121 114.903 22.5716V19.3273H114.221C112.838 19.3273 111.668 19.8465 110.987 21.0142ZM119.297 24.2215C119.297 25.4283 120.134 26.3553 121.577 26.3553C123.018 26.3553 123.856 25.4283 123.856 24.2215C123.856 23.0542 123.018 22.0705 121.577 22.0705C120.134 22.0705 119.297 23.0542 119.297 24.2215ZM127.597 24.2215C127.597 27.4495 124.79 29.285 121.577 29.285C118.382 29.285 115.556 27.4667 115.556 24.2215C115.556 20.9772 118.361 19.1408 121.577 19.1408C124.79 19.1408 127.597 20.9772 127.597 24.2215ZM134.572 21.8855C135.253 21.8855 135.877 22.1821 136.403 22.5534V19.6971C135.701 19.3271 134.883 19.1406 134.064 19.1406C130.928 19.1406 128.472 21.2559 128.472 24.3154C128.472 27.1888 130.947 29.2848 133.909 29.2848C134.766 29.2848 135.623 29.1181 136.403 28.7468V25.8909C135.936 26.3001 135.253 26.5403 134.629 26.5403C133.168 26.5403 132.135 25.5755 132.135 24.2041C132.135 22.8873 133.208 21.8855 134.572 21.8855Z" fill="white"/>
<path fill-rule="evenodd" clip-rule="evenodd" d="M76.9381 14.8264H80.9432L83.8186 22.036L86.8633 14.8264H90.9078L93.1804 29.1308H89.0321L88.0074 21.446L84.6396 29.1308H82.9087L79.6888 21.4447L78.5158 29.1308H74.3862L76.9381 14.8264ZM77.208 15.1487L74.7711 28.8085H78.239L79.4672 20.7602H79.7516L83.1231 28.8085H84.4289L87.956 20.7602H88.2411L89.3143 28.8085H92.8029L90.6326 15.1487H87.0771L83.8101 22.8847L80.7247 15.1487H77.208ZM98.8158 19.1408C95.8552 19.1408 93.8095 21.4774 93.8095 24.2043C93.8095 26.9295 95.8943 29.285 98.8545 29.285C99.8855 29.285 100.967 28.9522 101.634 28.2212L101.914 27.9139V28.97H105.461V19.4563H101.914V20.3538L101.646 20.1177C100.902 19.4612 99.8345 19.1408 98.8158 19.1408ZM93.4872 24.2043C93.4872 21.3143 95.6626 18.8185 98.8158 18.8185C99.7804 18.8185 100.802 19.0888 101.592 19.6617V19.1339H105.783V29.2923H101.592V28.7077C100.848 29.3354 99.8139 29.6074 98.8545 29.6074C95.7036 29.6074 93.4872 27.0945 93.4872 24.2043ZM134.065 19.3018C131.002 19.3018 128.633 21.3596 128.633 24.3155C128.633 27.0832 131.019 29.1237 133.909 29.1237C134.712 29.1237 135.511 28.9738 136.242 28.6439V26.2154C135.771 26.5263 135.179 26.7015 134.629 26.7015C133.863 26.7015 133.198 26.4481 132.724 26.0042C132.249 25.5596 131.974 24.9322 131.974 24.2041C131.974 22.79 133.127 21.7244 134.573 21.7244C135.189 21.7244 135.755 21.9519 136.242 22.2533V19.7956C135.585 19.4681 134.826 19.3018 134.065 19.3018ZM128.311 24.3155C128.311 21.1523 130.855 18.9795 134.065 18.9795C134.906 18.9795 135.751 19.1712 136.478 19.5546L136.564 19.6V22.8644L136.31 22.6851C135.798 22.3233 135.206 22.0467 134.573 22.0467C133.288 22.0467 132.297 22.9846 132.297 24.2041C132.297 24.8475 132.538 25.3882 132.944 25.7689C133.352 26.1502 133.934 26.3792 134.629 26.3792C135.217 26.3792 135.861 26.1513 136.297 25.7697L136.564 25.5356V28.8485L136.472 28.8923C135.668 29.2753 134.787 29.446 133.909 29.446C130.876 29.446 128.311 27.2946 128.311 24.3155ZM117.261 20.3377C118.398 19.4468 119.94 18.9796 121.577 18.9796C123.212 18.9796 124.754 19.4468 125.891 20.3377C127.032 21.2315 127.758 22.5476 127.758 24.2215C127.758 25.8876 127.031 27.1994 125.891 28.0907C124.754 28.9793 123.212 29.4462 121.577 29.4462C119.951 29.4462 118.409 28.9837 117.269 28.0974C116.126 27.2082 115.395 25.8963 115.395 24.2215C115.395 22.5476 116.121 21.2315 117.261 20.3377ZM117.46 20.5914C116.394 21.4269 115.717 22.6511 115.717 24.2215C115.717 25.7919 116.399 27.0117 117.467 27.843C118.54 28.6772 120.008 29.1239 121.577 29.1239C123.155 29.1239 124.623 28.673 125.692 27.8368C126.759 27.0034 127.436 25.7834 127.436 24.2215C127.436 22.6511 126.759 21.4269 125.692 20.5914C124.622 19.753 123.155 19.302 121.577 19.302C119.998 19.302 118.53 19.753 117.46 20.5914ZM114.221 19.4885C112.881 19.4885 111.772 19.9888 111.126 21.0954L111.079 21.1754H110.788V19.617H107.562V28.8089H110.788V25.1314C110.788 24.305 110.909 23.5441 111.307 22.9877C111.713 22.4197 112.383 22.0955 113.403 22.0955C113.876 22.0955 114.305 22.1361 114.742 22.3173V19.4885H114.221ZM111.11 20.543C111.845 19.5896 112.957 19.1662 114.221 19.1662H115.064V22.8401L114.827 22.7139C114.373 22.4721 113.937 22.4178 113.403 22.4178C112.456 22.4178 111.898 22.7142 111.569 23.1751C111.231 23.6477 111.11 24.3242 111.11 25.1314V29.1312H107.24V19.2947H111.11V20.543ZM120.01 22.8219C119.653 23.181 119.458 23.6767 119.458 24.2215C119.458 24.787 119.653 25.2772 120.009 25.626C120.364 25.9745 120.891 26.1941 121.577 26.1941C122.262 26.1941 122.789 25.9745 123.144 25.626C123.499 25.2772 123.695 24.7869 123.695 24.2215C123.695 23.6767 123.499 23.181 123.142 22.8219C122.786 22.4637 122.259 22.2317 121.577 22.2317C120.894 22.2317 120.366 22.4637 120.01 22.8219ZM119.782 22.5947C120.205 22.1692 120.817 21.9094 121.577 21.9094C122.336 21.9094 122.948 22.1692 123.371 22.5947C123.793 23.0192 124.017 23.599 124.017 24.2215C124.017 24.8629 123.794 25.4395 123.37 25.8559C122.945 26.2726 122.333 26.5165 121.577 26.5165C120.82 26.5165 120.207 26.2726 119.783 25.856C119.359 25.4395 119.136 24.8629 119.136 24.2215C119.136 23.5991 119.359 23.0193 119.782 22.5947ZM98.0716 22.7083C98.4612 22.3165 99.0311 22.0705 99.7527 22.0705C100.472 22.0705 101.042 22.3165 101.432 22.7083C101.821 23.1001 102.031 23.6379 102.031 24.2215C102.031 24.8249 101.821 25.3584 101.432 25.741C101.042 26.1235 100.472 26.3553 99.7527 26.3553C99.0311 26.3553 98.4612 26.1235 98.0716 25.741C97.682 25.3584 97.4728 24.8249 97.4728 24.2215C97.4728 23.6379 97.682 23.1001 98.0716 22.7083ZM99.7527 22.3929C99.1074 22.3929 98.6228 22.611 98.3002 22.9356C97.9758 23.2619 97.7952 23.7155 97.7952 24.2215C97.7952 24.749 97.9768 25.1961 98.2974 25.511C98.6176 25.8254 99.1019 26.033 99.7527 26.033C100.401 26.033 100.885 25.8255 101.206 25.511C101.527 25.1959 101.709 24.7488 101.709 24.2215C101.709 23.7157 101.528 23.262 101.203 22.9356C100.88 22.6109 100.396 22.3929 99.7527 22.3929Z" fill="#1D1D1D"/>
</svg>
