<?xml version="1.0" encoding="UTF-8"?><svg id="Calque_1" xmlns="http://www.w3.org/2000/svg" viewBox="0 0 591.99 124.99"><defs><style>.cls-1{fill:#fff;stroke-width:0px;}</style></defs><path class="cls-1" d="M285.43,79.99c-7.17,0-13.6-1.71-19.29-5.13-5.69-3.42-10.14-8.05-13.35-13.88-3.22-5.83-4.82-12.21-4.82-19.15s1.61-13.25,4.82-19.08c3.21-5.83,7.67-10.46,13.35-13.91,5.69-3.45,12.12-5.17,19.29-5.17,6.29,0,11.97,1.25,17.03,3.75,5.06,2.5,9.27,5.93,12.63,10.3,3.35,4.37,5.65,9.33,6.9,14.88h-20.54c-1.34-3.42-3.41-5.98-6.21-7.67-2.8-1.69-6.05-2.53-9.75-2.53-3.05,0-5.92.78-8.6,2.32-2.68,1.55-4.83,3.78-6.45,6.69-1.62,2.91-2.43,6.38-2.43,10.41s.82,7.51,2.46,10.44c1.64,2.94,3.79,5.18,6.45,6.73,2.66,1.55,5.52,2.32,8.57,2.32,2.45,0,4.72-.38,6.8-1.14,2.08-.76,3.91-2,5.48-3.71,1.57-1.71,2.8-3.89,3.68-6.52h20.47c-1.16,5.83-3.4,11.01-6.73,15.54-3.33,4.53-7.55,8.08-12.66,10.65-5.11,2.57-10.81,3.85-17.1,3.85Z"/><path class="cls-1" d="M335.28,5.97h51.55v15.47h-31.57v13.46h26.71v13.11h-26.71v14.22h32.05v15.47h-52.03V5.97Z"/><path class="cls-1" d="M417.49,23.17h-18.87V5.97h57.72v17.21h-18.87v54.53h-19.98V23.17Z"/><path class="cls-1" d="M468.31,5.97h19.98v71.74h-19.98V5.97Z"/><path class="cls-1" d="M507.06,5.97h17.9l21.85,33.3.14-.07,21.92-33.23h17.83v71.74h-18.66v-43.43h-.07l-17.9,27.75h-6.52l-17.69-27.82h-.07v43.5h-18.73V5.97Z"/><rect class="cls-1" x="100.79" y="82.4" width="38.2" height="38.2"/><polygon class="cls-1" points="5.29 44.2 5.29 120.61 43.49 120.61 43.49 82.4 100.79 82.4 100.79 44.2 5.29 44.2"/><path class="cls-1" d="M190.92,6h-90.13v38.2h76.4v76.4h38.2V30.48c0-13.52-10.96-24.48-24.48-24.48Z"/><path class="cls-1" d="M254.08,94.33h3.79l9.43,12.67h.02l9.47-12.67h3.79v26.44h-4.33v-19.44l-8.34,11.27h-1.21l-8.26-11.31v19.48h-4.35v-26.44Z"/><path class="cls-1" d="M295.75,94.32h4.14l11.06,26.46h-4.61l-8.38-20.27-.12-.56h-.06l-.14.56-8.38,20.27h-4.59l11.06-26.46ZM292.69,111.69h10.22l1.42,3.65h-13.06l1.42-3.65Z"/><path class="cls-1" d="M315.06,94.33h11.35c1.75,0,3.31.36,4.68,1.07,1.37.71,2.43,1.71,3.2,2.99.76,1.28,1.15,2.77,1.15,4.45,0,1.23-.23,2.37-.68,3.41-.45,1.04-1.1,1.93-1.92,2.65-.83.73-1.8,1.26-2.92,1.61l6.12,10.24h-5l-5.46-9.58c-.16.01-.31.02-.48.02h-5.69v9.56h-4.35v-26.44ZM326.28,107.51c.91,0,1.73-.2,2.46-.59.73-.4,1.31-.95,1.72-1.65.41-.71.62-1.51.62-2.42,0-.86-.21-1.64-.63-2.34-.42-.71-1-1.26-1.74-1.67s-1.56-.61-2.47-.61h-6.82v9.29h6.86Z"/><path class="cls-1" d="M353.2,121.32c-2.58,0-4.95-.62-7.12-1.85-2.17-1.23-3.89-2.9-5.16-5.02-1.27-2.11-1.91-4.43-1.91-6.94s.63-4.83,1.91-6.94c1.27-2.11,2.99-3.78,5.16-5.01,2.17-1.23,4.54-1.84,7.12-1.84s4.96.61,7.13,1.84c2.18,1.22,3.9,2.89,5.18,5.01s1.92,4.43,1.92,6.94-.64,4.83-1.92,6.94-3,3.78-5.18,5.02c-2.18,1.23-4.56,1.85-7.13,1.85ZM353.2,117.31c1.8,0,3.46-.42,4.97-1.27,1.51-.85,2.71-2.02,3.59-3.52.88-1.5,1.32-3.16,1.32-4.99s-.44-3.51-1.32-5.01c-.88-1.5-2.08-2.67-3.59-3.52-1.51-.85-3.17-1.27-4.97-1.27s-3.44.42-4.95,1.27c-1.51.85-2.71,2.02-3.59,3.52-.88,1.5-1.32,3.17-1.32,5.01s.44,3.49,1.33,4.98c.89,1.49,2.08,2.66,3.59,3.52,1.5.86,3.15,1.28,4.94,1.28Z"/><path class="cls-1" d="M384.68,121.32c-2.55,0-4.89-.62-7.01-1.85-2.12-1.23-3.79-2.9-5.02-5.02-1.23-2.11-1.85-4.43-1.85-6.94s.62-4.84,1.85-6.95c1.23-2.11,2.91-3.77,5.02-5,2.12-1.23,4.45-1.84,7.01-1.84,1.94,0,3.8.37,5.57,1.12s3.29,1.88,4.55,3.39c1.26,1.52,2.1,3.36,2.5,5.54h-4.43c-.36-1.35-.94-2.47-1.74-3.37-.8-.9-1.75-1.57-2.87-2.01-1.11-.44-2.35-.66-3.69-.66-1.75,0-3.34.41-4.77,1.23-1.43.82-2.57,1.98-3.4,3.47s-1.25,3.19-1.25,5.09.41,3.64,1.24,5.11c.83,1.48,1.96,2.62,3.4,3.44s3.03,1.22,4.78,1.22c1.33,0,2.56-.22,3.68-.66,1.12-.44,2.08-1.11,2.88-2.01.8-.9,1.37-2.02,1.72-3.37h4.45c-.4,2.19-1.23,4.04-2.49,5.55s-2.77,2.64-4.55,3.38c-1.78.74-3.64,1.12-5.58,1.12Z"/></svg>