<svg width="42" height="42" viewBox="0 0 42 42" fill="none" xmlns="http://www.w3.org/2000/svg">
<path d="M25.5769 38.8309L25.1948 37.3325C31.1808 35.78 35.8056 31.0508 37.2628 24.9895L38.0057 25.1712H38.7775V25.266L38.7564 25.3549C37.1629 31.9711 32.1138 37.1353 25.5769 38.8309Z" fill="#6788B8"/>
<path d="M41.5457 28.3521C41.3134 29.9297 40.7969 31.4707 40.0636 32.9014C39.8697 33.2533 39.6758 33.6052 39.4723 33.9532L38.8042 34.9586C38.5604 35.2776 38.3108 35.5947 38.0593 35.9098C37.7905 36.2095 37.5237 36.5131 37.2511 36.807C36.9592 37.0834 36.6713 37.3657 36.3737 37.6364C36.0627 37.8916 35.7593 38.1565 35.4407 38.402C35.1105 38.6321 34.786 38.868 34.452 39.0903C34.1083 39.2992 33.7666 39.5099 33.4172 39.7013C32.008 40.4631 30.4856 41.0044 28.9248 41.2616C30.4127 40.7241 31.8314 40.0551 33.1484 39.2315C33.3135 39.1309 33.4709 39.0149 33.6322 38.9067L34.116 38.5838C34.4289 38.3556 34.7323 38.114 35.0413 37.88L35.9264 37.1279C36.2086 36.863 36.4812 36.5885 36.7596 36.3197C37.0264 36.0394 37.2856 35.7513 37.5486 35.4671L38.282 34.5642L38.9654 33.6207C39.1708 33.292 39.3801 32.9633 39.5932 32.6365C40.3938 31.2986 41.0369 29.8601 41.5457 28.3521Z" fill="#6788B8"/>
<path d="M17.3216 39.0456C10.418 37.6226 4.89277 32.2476 3.24365 25.355L4.73725 24.9934C6.24622 31.3061 11.3069 36.2286 17.6307 37.5317L17.3216 39.0456Z" fill="#6788B8"/>
<path d="M37.3107 17.2846C35.9246 11.117 31.2825 6.29694 25.1929 4.70766L25.5788 3.21118C32.2271 4.9474 37.2973 10.2083 38.8101 16.9444L37.3107 17.2846Z" fill="#6788B8"/>
<path d="M4.67974 17.2847L3.93485 17.1145H3.16309V17.0256L3.18228 16.9405C4.76804 9.91251 10.3182 4.4409 17.3217 3.00049L17.6289 4.5163C11.2148 5.83683 6.13304 10.8483 4.67974 17.2847Z" fill="#6788B8"/>
<path d="M0.688477 13.3523C0.918854 11.6779 1.46216 10.0403 2.24544 8.52837C2.45278 8.15716 2.66013 7.784 2.87899 7.41665C3.11896 7.06477 3.35318 6.70708 3.597 6.35713C3.86001 6.02071 4.12685 5.68816 4.39946 5.35948C4.69128 5.04819 4.97542 4.72918 5.27299 4.4237C5.58784 4.13755 5.89886 3.84173 6.22139 3.56331C6.55735 3.3023 6.88372 3.02583 7.22929 2.77641C7.58637 2.54247 7.93385 2.29886 8.29669 2.07651C8.66722 1.8677 9.03391 1.65309 9.41404 1.46361C10.9326 0.705704 12.5702 0.19721 14.2347 0C12.6297 0.481425 11.0939 1.11946 9.66744 1.9431C9.48698 2.04171 9.31804 2.16158 9.14334 2.26792L8.61923 2.59273C8.2775 2.82088 7.95112 3.07029 7.61707 3.30811C7.29454 3.56139 6.9797 3.82433 6.66101 4.08148C6.35384 4.35409 6.06204 4.64217 5.76063 4.92059C5.47074 5.2106 5.19427 5.51415 4.91014 5.80997C4.64137 6.12125 4.38795 6.44413 4.1211 6.75735L3.38966 7.75113C3.16889 8.09915 2.94809 8.44717 2.72155 8.79325C1.86723 10.2124 1.19915 11.7456 0.688477 13.3523Z" fill="#6788B8"/>
<path d="M21.2671 26.2831C21.2402 26.2831 21.2152 26.2831 21.1884 26.2831C19.8867 26.2618 18.6734 25.732 17.7672 24.7924C16.863 23.8508 16.3754 22.6115 16.3946 21.3025C16.4157 19.9917 16.9398 18.7697 17.8748 17.8572C19.8022 15.9759 22.8931 16.0243 24.7611 17.9654C25.6673 18.907 26.153 20.1463 26.1338 21.4553C26.1127 22.7661 25.5885 23.9881 24.6536 24.9007C23.7398 25.7939 22.5399 26.2831 21.2671 26.2831ZM21.2652 18.0215C20.4281 18.0215 19.5911 18.3347 18.946 18.9669C17.6252 20.2546 17.5925 22.3853 18.8711 23.7155C19.4912 24.3593 20.3225 24.7228 21.2133 24.7363C22.1022 24.7518 22.9469 24.4134 23.5862 23.7909C24.2255 23.1664 24.5864 22.3292 24.5999 21.4321C24.6133 20.535 24.2812 19.6862 23.6611 19.0424C23.0064 18.3618 22.1367 18.0215 21.2652 18.0215Z" fill="#B8CEE3"/>
<path d="M21.4033 9.85662C20.1017 9.85662 18.8788 9.3462 17.9592 8.42008C16.0605 6.50792 16.0605 3.39702 17.9592 1.48293C18.8788 0.556812 20.1017 0.0463867 21.4033 0.0463867C22.705 0.0463867 23.9279 0.556812 24.8475 1.48293C25.7671 2.40904 26.2739 3.64064 26.2739 4.9515C26.2739 6.26237 25.7671 7.49397 24.8475 8.42008C23.926 9.3462 22.703 9.85662 21.4033 9.85662ZM21.4033 1.59313C20.5125 1.59313 19.6755 1.94308 19.0458 2.57725C17.7461 3.88618 17.7461 6.01683 19.0458 7.32576C19.6755 7.95992 20.5125 8.30988 21.4033 8.30988C22.2941 8.30988 23.1312 7.95992 23.7609 7.32576C24.3906 6.69159 24.738 5.84862 24.738 4.9515C24.738 4.05439 24.3906 3.21142 23.7609 2.57725C23.1312 1.94308 22.2941 1.59313 21.4033 1.59313Z" fill="#B8CEE3"/>
<path d="M20.6181 8.82271L20.5635 17.3279L22.0993 17.3379L22.154 8.83272L20.6181 8.82271Z" fill="#B8CEE3"/>
<path d="M4.86996 26.0414C4.84309 26.0414 4.81812 26.0414 4.79124 26.0414C3.48961 26.0201 2.2763 25.4903 1.37015 24.5507C-0.497828 22.6076 -0.449845 19.4967 1.47765 17.6155C3.40514 15.7342 6.49603 15.7826 8.36401 17.7237C10.232 19.6668 10.184 22.7777 8.25459 24.659C7.34268 25.5522 6.14088 26.0414 4.86996 26.0414ZM4.86804 17.7798C4.031 17.7798 3.19397 18.093 2.54892 18.7252C1.22809 20.0148 1.19545 22.1436 2.47404 23.4738C3.09414 24.1176 3.92541 24.4811 4.8162 24.4946C5.70891 24.5101 6.54979 24.1717 7.18909 23.5492C8.50992 22.2596 8.54256 20.1309 7.26396 18.8007C6.60931 18.122 5.73964 17.7798 4.86804 17.7798Z" fill="#B8CEE3"/>
<path d="M8.73469 20.3209L8.72046 21.8677L17.2406 21.9472L17.2548 20.4004L8.73469 20.3209Z" fill="#B8CEE3"/>
<path d="M37.1189 26.0413C36.4508 26.0413 35.7712 25.9021 35.1242 25.6082C32.6765 24.4965 31.5822 21.5866 32.6861 19.1196C33.79 16.6545 36.6812 15.5543 39.1289 16.6641C40.3154 17.2036 41.2216 18.1741 41.6823 19.3999C42.1431 20.6257 42.1008 21.9579 41.5671 23.1527C40.7531 24.9663 38.9754 26.0413 37.1189 26.0413ZM37.1304 17.7778C35.8576 17.7778 34.6423 18.5144 34.0856 19.7557C33.3292 21.4436 34.0779 23.4369 35.7539 24.1968C37.4299 24.9585 39.4092 24.2045 40.1637 22.5166C40.9201 20.8287 40.1714 18.8354 38.4954 18.0755C38.0519 17.8745 37.5874 17.7778 37.1304 17.7778Z" fill="#B8CEE3"/>
<path d="M25.7048 20.1912L25.6807 21.7378L33.2555 21.8576L33.2796 20.311L25.7048 20.1912Z" fill="#B8CEE3"/>
<path d="M21.4033 41.9997C20.1017 41.9997 18.8788 41.4893 17.9592 40.5631C16.0605 38.651 16.0605 35.5382 17.9592 33.626C18.8788 32.6999 20.1017 32.1895 21.4033 32.1895C22.705 32.1895 23.9279 32.6999 24.8475 33.626C25.7671 34.5521 26.2739 35.7837 26.2739 37.0946C26.2739 38.4054 25.7671 39.637 24.8475 40.5631C23.926 41.4893 22.703 41.9997 21.4033 41.9997ZM21.4033 33.7362C20.5125 33.7362 19.6755 34.0861 19.0458 34.7203C17.7461 36.0292 17.7461 38.1599 19.0458 39.4688C19.6755 40.103 20.5125 40.4529 21.4033 40.4529C22.2941 40.4529 23.1312 40.103 23.7609 39.4688C24.3906 38.8347 24.738 37.9917 24.738 37.0946C24.738 36.1975 24.3906 35.3545 23.7609 34.7203C23.1312 34.0861 22.2941 33.7362 21.4033 33.7362Z" fill="#B8CEE3"/>
<path d="M22.2634 25.5095H20.7275V33.2142H22.2634V25.5095Z" fill="#B8CEE3"/>
</svg>
