<svg width="42" height="42" viewBox="0 0 42 42" fill="none" xmlns="http://www.w3.org/2000/svg">
<g clip-path="url(#clip0_1649_4007)">
<path d="M15.407 12.7121L19.74 17.0451C20.748 18.1161 22.379 16.4151 21.371 15.4141L17.094 11.1371C16.226 10.2621 14.588 11.7041 15.407 12.7121ZM17.479 19.6281C18.424 20.3211 19.866 18.8091 18.984 17.8711L14.77 13.6571C13.139 12.5861 12.32 14.4761 13.013 15.2251C14.525 16.6741 15.974 18.1791 17.479 19.6281ZM15.344 21.9521C16.163 22.5821 17.416 21.1961 16.73 20.4471C15.407 19.3761 13.902 17.6191 12.642 16.4221C11.886 15.6031 10.444 17.1151 11.193 17.8711C12.579 19.2501 13.958 20.6291 15.344 21.9521ZM9.81401 20.5661L13.398 24.1501C13.965 24.6541 15.155 23.3941 14.658 22.8901C13.461 21.6931 12.208 20.4401 11.011 19.2431C10.255 18.7461 9.37301 19.9361 9.81401 20.5661ZM21 13.4681L24.206 10.2621C23.576 9.82109 22.883 9.44309 22.134 9.31709C20.44 9.00209 18.235 9.31709 16.478 9.25409C16.037 9.19109 16.037 9.50609 16.037 9.82109C16.667 9.69509 17.423 9.88409 17.92 10.3881L19.306 11.7741C19.747 11.7741 20.44 11.7741 20.811 11.7741C21.567 11.8371 21.504 12.9711 20.748 12.9081C20.622 12.9081 20.559 12.9081 20.433 12.9081L21 13.4681ZM35.455 3.85009C34.573 3.85009 33.887 4.60609 33.887 5.48109C33.887 6.35609 34.58 7.04909 35.455 7.04909C36.33 7.04909 37.023 6.35609 37.023 5.48109C37.023 4.60609 36.337 3.85009 35.455 3.85009ZM37.905 10.9551C37.905 7.37109 33.068 7.37109 33.068 10.9551C34.51 11.7671 36.4 11.7671 37.905 10.9551ZM31.934 10.1361C32.123 8.87609 32.816 8.00109 33.754 7.56009C33.124 7.05609 32.746 6.30009 32.746 5.48809C32.746 3.98309 33.943 2.78609 35.448 2.78609C36.953 2.78609 38.15 3.98309 38.15 5.48809C38.15 6.30709 37.772 7.05609 37.142 7.56009C38.087 8.00109 38.773 8.88309 38.962 10.1361C39.907 9.19109 40.467 7.93809 40.467 6.55209C40.467 3.72409 38.206 1.52609 35.441 1.52609C32.676 1.52609 30.415 3.72409 30.415 6.55209C30.429 7.93809 30.996 9.19109 31.934 10.1361ZM6.54501 3.85009C5.66301 3.85009 4.91401 4.60609 4.91401 5.48109C4.91401 6.35609 5.67001 7.04909 6.54501 7.04909C7.42001 7.04909 8.11301 6.35609 8.11301 5.48109C8.11301 4.60609 7.42701 3.85009 6.54501 3.85009ZM4.09501 10.9551C5.60001 11.7741 7.49001 11.7741 8.93201 10.9551C8.93201 7.37109 4.09501 7.37109 4.09501 10.9551ZM10.003 10.1361C10.948 9.19109 11.571 7.93809 11.571 6.55209C11.571 3.72409 9.31001 1.52609 6.54501 1.52609C3.78001 1.52609 1.51901 3.72409 1.51901 6.55209C1.51901 7.93809 2.08601 9.19109 3.02401 10.1361C3.21301 8.87609 3.90601 8.00109 4.84401 7.56009C4.21401 7.05609 3.83601 6.30009 3.83601 5.48809C3.83601 3.98309 5.03301 2.78609 6.53801 2.78609C8.04301 2.78609 9.24001 3.98309 9.24001 5.48809C9.24001 6.30709 8.86201 7.05609 8.23201 7.56009C9.12101 8.00109 9.87701 8.87609 10.003 10.1361ZM24.836 4.79509L25.088 3.72409C25.466 3.78709 25.844 3.91309 26.222 3.97609L25.9 5.04709C25.522 4.98409 25.214 4.85809 24.836 4.79509ZM22.694 4.41709L22.757 3.34609C23.135 3.34609 23.513 3.40909 23.891 3.47209L23.765 4.54309C23.387 4.48009 23.009 4.48009 22.694 4.41709ZM26.971 5.42509L27.349 4.41709C27.727 4.54309 28.042 4.66909 28.42 4.85809L27.916 5.86609C27.601 5.73309 27.286 5.54409 26.971 5.42509ZM17.164 4.79509L16.912 3.72409C16.534 3.78709 16.156 3.91309 15.778 3.97609L16.1 5.04709C16.478 4.98409 16.786 4.85809 17.164 4.79509ZM19.306 4.41709L19.243 3.34609C18.802 3.34609 18.487 3.40909 18.109 3.47209L18.235 4.54309C18.613 4.48009 18.991 4.48009 19.306 4.41709ZM15.029 5.42509L14.651 4.41709C14.273 4.54309 13.958 4.66909 13.58 4.85809L14.021 5.86609C14.399 5.73309 14.714 5.54409 15.029 5.42509ZM20.496 4.35409L20.433 3.22009C20.811 3.22009 21.189 3.22009 21.567 3.22009V4.35409C21.189 4.35409 20.811 4.35409 20.496 4.35409ZM5.22201 15.7291L4.15101 15.4141C4.02501 15.7921 3.89901 16.1071 3.83601 16.4851L4.90701 16.7371C4.97701 16.4221 5.10301 16.1071 5.22201 15.7291ZM4.66201 17.8011L3.59101 17.6121C3.52801 17.9901 3.46501 18.3681 3.40201 18.7461L4.47301 18.8721C4.53601 18.4941 4.59901 18.1791 4.66201 17.8011ZM4.34701 19.9361L3.27601 19.8731C3.27601 20.2511 3.21301 20.6291 3.21301 21.0071H4.34701C4.34701 20.6921 4.34701 20.3141 4.34701 19.9361ZM6.04101 13.7201L5.03301 13.2791C4.84401 13.5941 4.71801 13.9721 4.52901 14.2871L5.60001 14.7211C5.72601 14.4061 5.85201 14.0981 6.04101 13.7201ZM36.778 15.7291L37.849 15.4141C37.975 15.7921 38.038 16.1071 38.164 16.4851L37.093 16.7371C36.96 16.4221 36.897 16.1071 36.778 15.7291ZM37.338 17.8011L38.409 17.6121C38.472 17.9901 38.535 18.3681 38.598 18.7461L37.464 18.8721C37.464 18.4941 37.401 18.1791 37.338 17.8011ZM37.59 19.9361L38.724 19.8731C38.724 20.2511 38.724 20.6291 38.724 21.0071H37.653C37.653 20.6921 37.653 20.3141 37.59 19.9361ZM35.959 13.7201L36.967 13.2791C37.156 13.5941 37.282 13.9721 37.471 14.2871L36.4 14.7211C36.274 14.4061 36.148 14.0981 35.959 13.7201ZM21 28.4901C24.017 28.4901 26.404 30.9401 26.404 33.9571C26.404 36.9111 24.017 39.3611 21 39.3611C17.983 39.3611 15.596 36.9111 15.596 33.9571C15.596 30.9401 17.983 28.4901 21 28.4901ZM21 31.6261C20.244 31.6261 19.677 32.2561 19.677 33.0121C19.677 33.7051 20.244 34.3351 21 34.3351C21.756 34.3351 22.323 33.7051 22.323 33.0121C22.323 32.2561 21.756 31.6261 21 31.6261ZM23.072 37.7861C22.82 34.7691 19.173 34.7691 18.921 37.7861C19.551 38.1011 20.244 38.2901 20.993 38.2901C21.742 38.2901 22.449 38.1011 23.072 37.7861ZM17.857 36.9741C18.046 35.9661 18.613 35.2171 19.362 34.8391C18.858 34.3351 18.543 33.7051 18.543 33.0191C18.543 31.6331 19.677 30.5691 20.993 30.5691C22.309 30.5691 23.443 31.6401 23.443 33.0191C23.443 33.7121 23.128 34.3421 22.624 34.8391C23.38 35.2171 23.947 35.9731 24.129 36.9741C24.885 36.1551 25.326 35.0911 25.326 33.9571C25.326 31.5071 23.38 29.5611 20.993 29.5611C18.606 29.5611 16.66 31.5071 16.66 33.9571C16.667 35.0841 17.101 36.1551 17.857 36.9741ZM21.756 41.5591C21.252 41.6221 20.748 41.6221 20.251 41.5591C9.24701 41.1181 0.38501 32.0671 0.38501 21.0071C0.38501 17.6121 1.20401 14.2801 2.83501 11.3261C1.39301 10.1921 0.44801 8.49809 0.44801 6.55209C0.44801 3.15709 3.15001 0.45509 6.54501 0.45509C8.49101 0.45509 10.255 1.33709 11.319 2.77909C14.336 1.21109 17.605 0.39209 21 0.39209C24.395 0.39209 27.664 1.21109 30.618 2.77909C31.752 1.33009 33.509 0.45509 35.455 0.45509C38.85 0.45509 41.552 3.15709 41.552 6.55209C41.552 8.49809 40.607 10.1991 39.165 11.3261C40.733 14.2801 41.615 17.6121 41.615 21.0071C41.615 32.0671 32.753 41.1181 21.756 41.5591ZM28.042 30.8141L32.375 26.4811C31.367 25.4731 30.989 25.0951 30.492 23.8421C29.232 25.1651 27.538 26.7961 26.159 28.1751C26.971 28.8611 27.601 29.8061 28.042 30.8141ZM13.398 32.5081L8.43501 27.5451C8.24601 27.3561 8.24601 26.9151 8.43501 26.7261L10.129 25.0951C9.87701 24.2761 9.81401 23.2121 10.066 22.3931L8.99501 21.3221C8.30201 20.5661 8.55401 19.4391 9.24701 18.7461C9.49901 18.4941 9.75101 18.3051 10.066 18.2421C9.43601 16.9821 10.444 15.4771 11.697 15.1621C11.256 13.7131 12.579 11.9561 14.084 12.1451C14.084 11.4521 14.399 10.6961 14.966 10.2621C14.714 9.19109 15.281 8.06409 16.534 8.12709C18.228 8.12709 20.748 7.93809 22.316 8.25309C23.45 8.44209 24.451 9.00909 25.333 9.75809C26.656 9.63209 28.035 10.8291 27.972 12.1451C29.421 12.1451 30.8 13.7131 30.359 15.0991C31.619 15.4141 32.683 16.9821 31.927 18.2421C32.683 18.5571 33.25 19.2501 33.376 19.9991C33.502 20.5031 33.376 21.0071 32.998 21.3221L31.367 22.9531C31.934 24.5841 32.375 24.8991 33.565 26.0961C33.754 26.2851 33.754 26.6631 33.565 26.8521L28.476 31.9411C28.602 32.5711 28.728 33.2011 28.728 33.8871C28.728 34.5801 28.602 35.2101 28.476 35.8961C33.565 33.3201 37.023 28.2941 37.59 22.5751C37.653 21.8821 38.724 21.9451 38.661 22.7011C38.031 29.1131 33.95 34.7061 28.042 37.2821C27.979 37.2821 27.979 37.2821 27.916 37.3451C27.412 38.2901 26.719 39.1651 25.907 39.8581C34.265 37.6601 40.488 30.0511 40.488 21.0071C40.488 17.8011 39.732 14.7211 38.227 11.9561C37.408 12.3341 36.47 12.5861 35.462 12.5861C32.13 12.5861 29.365 9.88409 29.365 6.55209C29.365 5.54409 29.617 4.54309 30.058 3.72409C27.223 2.28209 24.143 1.52609 21 1.52609C17.857 1.52609 14.714 2.28209 11.949 3.72409C12.39 4.54309 12.642 5.54409 12.642 6.55209C12.642 9.88409 9.87701 12.5861 6.54501 12.5861C5.53701 12.5861 4.59901 12.3341 3.71701 11.9561C2.27501 14.7211 1.51901 17.8011 1.51901 21.0071C1.51901 30.0581 7.74201 37.6601 16.1 39.8581C15.281 39.1651 14.595 38.2901 14.091 37.3451C14.028 37.2821 13.965 37.2821 13.965 37.2821C7.99401 34.7061 3.90601 29.1131 3.34601 22.7011C3.28301 21.9451 4.35401 21.8821 4.41701 22.5751C4.98401 28.2941 8.44201 33.3201 13.531 35.8961C13.405 35.2031 13.279 34.5731 13.279 33.8871C13.272 33.3901 13.335 32.9491 13.398 32.5081ZM25.277 27.4821C27.601 25.1581 29.925 22.8341 32.256 20.5661C32.319 20.4401 32.319 20.3141 32.319 20.1881C32.256 19.6841 31.5 18.9911 31.059 19.2431C30.177 20.0621 29.365 20.9371 28.483 21.7561C27.979 22.2601 27.223 21.5041 27.727 21.0001C28.735 19.9291 29.799 18.9281 30.87 17.8571C31.563 16.9751 30.24 15.7851 29.484 16.2891C28.476 17.2971 27.412 18.2981 26.404 19.3691C25.9 19.8731 25.144 19.0541 25.648 18.5501C26.782 17.4161 27.909 16.3521 28.98 15.2181C29.925 14.2731 28.413 12.7051 27.475 13.4611L24.206 16.7301C23.702 17.2341 22.883 16.4781 23.45 15.9741C24.521 14.9031 25.585 13.7131 26.656 12.7051C27.412 11.6971 25.837 10.1921 24.899 11.1371L21.819 14.2801L22.197 14.6581C23.765 16.4151 22.323 18.5571 20.377 18.4941C20.44 19.7541 19.243 20.8811 18.053 20.9441C18.053 22.0151 17.045 23.1421 15.855 23.2051C15.855 23.2681 15.855 23.3311 15.855 23.3941C15.729 24.3391 14.847 25.2141 13.972 25.3401C13.531 25.4031 12.901 25.2141 12.649 24.8991L11.018 23.3311C11.018 23.8981 11.081 24.5911 11.27 25.0881C11.333 25.2771 11.27 25.5291 11.081 25.6551L9.63201 27.0971L13.783 31.2481C14.854 28.2941 17.682 26.1591 21.007 26.1591C22.568 26.1591 24.08 26.6631 25.277 27.4821ZM25.025 28.6091L24.395 28.2941L24.458 28.2311C23.45 27.6011 22.26 27.2861 21 27.2861C17.353 27.2861 14.399 30.2401 14.399 33.8871C14.399 37.5341 17.353 40.4881 21 40.4881C24.647 40.4881 27.601 37.5341 27.601 33.8871C27.601 31.7521 26.593 29.8061 25.025 28.6091Z" fill="#6788B8"/>
</g>
<defs>
<clipPath id="clip0_1649_4007">
<rect width="42" height="42" fill="white"/>
</clipPath>
</defs>
</svg>
