<svg width="42" height="42" viewBox="0 0 42 42" fill="none" xmlns="http://www.w3.org/2000/svg">
<g clip-path="url(#clip0_1649_4013)">
<g clip-path="url(#clip1_1649_4013)">
<path d="M12.7462 16.4756C11.5308 16.4183 10.1499 16.5901 8.53352 16.9401C8.24716 16.9974 8.06898 17.3474 8.18988 17.6337C8.24716 17.8628 8.30443 18.041 8.41898 18.2128L3.62716 20.1728C3.56988 20.1728 3.51261 20.2301 3.45534 20.2874L0.74443 22.941C-0.23557 24.0356 -0.178297 25.5374 1.08807 26.4028L3.28352 27.6183V32.1237C3.28352 32.3528 3.45534 32.531 3.62716 32.6456L20.7199 41.7138C20.8344 41.771 21.0062 41.771 21.1844 41.7138L38.2135 32.6456C38.4426 32.531 38.5572 32.3592 38.5572 32.1237V27.561L40.7526 26.4092C42.0826 25.5437 42.0826 24.0419 41.0962 22.9474L38.3853 20.2937C38.3281 20.2365 38.2708 20.1792 38.2135 20.1792L33.4217 18.2128C33.5362 18.041 33.5935 17.8692 33.6508 17.6337C33.7653 17.3474 33.5935 16.9974 33.3072 16.9401C31.6908 16.5965 30.3035 16.4183 29.1517 16.4756L25.5117 14.9737V14.9165C27.6499 13.4147 28.9735 10.9328 28.9735 8.27284C28.9735 3.88193 25.3335 0.248291 20.949 0.248291C16.5008 0.248291 12.9244 3.88829 12.9244 8.27284C12.9244 10.9265 14.1972 13.4147 16.3862 14.9165V14.9737L12.7462 16.4756ZM37.9272 21.2674L40.409 23.6347C40.9881 24.271 40.9308 24.9647 40.2372 25.5374L27.9362 32.0092C26.6635 32.531 25.7981 32.7601 24.6462 31.7801L21.8144 29.0056L37.9272 21.2674ZM20.0262 29.0056L17.1944 31.7801C16.0426 32.7601 15.1708 32.531 13.9044 32.0092L1.60352 25.5374C0.909885 24.9583 0.852612 24.2647 1.48898 23.6347L3.91352 21.2674L20.0262 29.0056ZM37.5199 29.6992L21.4135 37.7237V30.1001L23.9526 32.5247C25.3972 33.7401 26.8417 33.6765 28.4008 32.9319L37.5262 28.1401V29.6992H37.5199ZM4.32079 30.851L20.4272 38.8819V40.3837L4.32079 31.8374V30.851ZM20.4272 37.7237L4.32079 29.6992V28.1401L13.4462 32.9319C15.0053 33.6828 16.5072 33.7401 17.8944 32.5247L20.4335 30.0428V37.7237H20.4272ZM20.949 6.37011C21.4708 6.37011 21.8717 6.83466 21.8717 7.35011C21.8717 7.87193 21.4644 8.33011 20.949 8.33011C20.3699 8.33011 19.969 7.86556 19.969 7.35011C19.969 6.82829 20.3699 6.37011 20.949 6.37011ZM19.4472 8.96647C19.969 8.96647 20.4272 9.37375 20.4272 9.8892C20.4272 10.4683 20.0199 10.8692 19.4472 10.8692C18.9253 10.8692 18.4672 10.4619 18.4672 9.94647C18.4672 9.37375 18.9253 8.96647 19.4472 8.96647ZM22.3935 8.96647C22.9726 8.96647 23.3735 9.37375 23.3735 9.94647C23.3735 10.4683 22.9662 10.8692 22.3935 10.8692C21.5281 10.8692 21.1208 9.83193 21.6999 9.25284C21.8717 9.08102 22.1644 8.96647 22.3935 8.96647ZM20.4272 11.6265C20.599 11.5692 20.7708 11.3974 20.949 11.2828C21.0635 11.3974 21.2353 11.5692 21.4135 11.6265V13.2428C21.4135 13.8219 20.4335 13.8219 20.4335 13.2428V11.6265H20.4272ZM20.4272 15.8965C19.4472 15.8965 18.4608 15.8965 17.4808 15.8965C17.4235 15.8965 17.4235 15.8965 17.4235 15.8392V14.6237C17.4235 14.4519 17.309 14.2801 17.1372 14.2165C15.1135 12.8865 13.9044 10.691 13.9044 8.26647C13.9044 4.39738 17.0799 1.2792 20.949 1.2792C24.8181 1.2792 27.9362 4.39738 27.9362 8.26647C27.9362 10.691 26.7208 12.8865 24.7035 14.2165C24.5317 14.331 24.4744 14.4456 24.4744 14.6237V15.8392C24.4744 15.8965 24.4172 15.8965 24.4172 15.8965C23.4372 15.8965 22.4508 15.8965 21.4135 15.8965V14.6237C21.9926 14.3947 22.4508 13.8728 22.4508 13.2365V11.9065C23.4881 11.9065 24.4172 11.041 24.4172 9.94011C24.4172 8.96011 23.7235 8.15193 22.8008 7.97375C22.8581 7.80193 22.9153 7.56647 22.9153 7.33738C22.9153 6.24284 22.0499 5.37102 20.949 5.37102C19.8544 5.37102 18.9253 6.23647 18.9253 7.33738C18.9253 7.56647 18.9826 7.80193 19.0399 7.97375C18.1172 8.14556 17.4808 8.95375 17.4808 9.94011C17.4808 10.4619 17.6526 10.9774 18.0599 11.3274C18.4035 11.671 18.8681 11.9065 19.4472 11.9065V13.2365C19.4472 13.8728 19.8544 14.3883 20.4272 14.6237V15.8965ZM24.0672 16.9337C24.6462 16.991 24.6462 17.9137 24.0099 17.9137H17.8881C17.1944 17.9137 17.1944 16.991 17.8308 16.9337H24.0672ZM18.5244 18.9574C20.1408 18.9574 21.7572 18.9574 23.3162 18.9574C24.0099 18.9574 24.0099 19.9947 23.3162 19.9947H18.5244C17.8308 19.9947 17.8308 18.9574 18.5244 18.9574ZM22.3935 20.981C21.8717 22.311 19.969 22.311 19.4472 20.981H22.3935ZM27.1853 16.7619C26.6635 16.9337 26.1481 17.1692 25.7408 17.4556C25.6262 17.5128 25.569 17.5701 25.4544 17.6274C25.5117 17.2837 25.4544 16.8765 25.2253 16.5328C25.3399 16.4183 25.3972 16.2465 25.4544 16.0683L27.1853 16.7619ZM21.4135 22.941C22.1072 22.8265 22.7435 22.4192 23.1444 21.7892C23.0299 22.2537 22.9726 22.7692 22.9153 23.291C22.9153 23.5201 23.0299 23.6983 23.259 23.8128C24.9899 24.6783 26.8417 25.0283 28.6872 24.2201C30.189 23.5265 31.6908 21.9674 33.0208 19.1356L36.7753 20.6947L21.4135 28.0828V22.941ZM8.81988 19.1292C10.1499 21.961 11.6517 23.5201 13.1535 24.2137C14.999 25.0219 16.8508 24.6783 18.5817 23.8065C18.8108 23.6919 18.9253 23.5201 18.9253 23.2847C18.8681 22.7628 18.8108 22.2474 18.7535 21.7828C19.0972 22.4192 19.7335 22.8201 20.4272 22.9347V28.0765L5.0717 20.6883L8.81988 19.1292ZM16.0999 17.4556C15.6926 17.1692 15.1772 16.9337 14.6553 16.7619L16.3862 16.0683C16.4435 16.2401 16.5008 16.4119 16.6153 16.5328C16.4435 16.8765 16.329 17.2265 16.3862 17.6274C16.2717 17.5701 16.2144 17.5128 16.0999 17.4556ZM17.7162 22.0183C15.9853 20.4592 14.2544 19.2437 11.8235 18.6137C11.1872 18.4419 10.9008 19.3647 11.5372 19.5937C14.019 20.2301 15.6926 21.5601 17.4872 23.1765C16.2144 23.6983 14.8908 23.8701 13.6181 23.291C12.1162 22.5974 10.6717 20.981 9.3417 17.8056C13.3826 16.9337 16.9081 17.4556 17.7162 22.0183ZM24.1244 22.0183C24.9899 17.4556 28.4581 16.9337 32.499 17.8056C31.169 20.981 29.7244 22.5974 28.2226 23.291C26.9499 23.8701 25.6262 23.6983 24.3535 23.1765C26.1417 21.5601 27.879 20.2301 30.3035 19.5937C30.9399 19.3647 30.6472 18.4419 30.0172 18.6137C27.5926 19.2437 25.8553 20.4592 24.1244 22.0183ZM21.4135 40.3837V38.8819L37.5262 30.8574V31.8374L21.4135 40.3837Z" fill="#6788B8"/>
</g>
</g>
<defs>
<clipPath id="clip0_1649_4013">
<rect width="42" height="42" fill="white"/>
</clipPath>
<clipPath id="clip1_1649_4013">
<rect width="42" height="42" fill="white" transform="translate(-0.0700684)"/>
</clipPath>
</defs>
</svg>
