<svg width="42" height="42" viewBox="0 0 42 42" fill="none" xmlns="http://www.w3.org/2000/svg">
<path d="M38.0323 37.0323H37.8516C37.8516 36.9419 37.8516 36.9419 37.8516 36.8516C37.8516 35.4968 37.129 34.4129 35.9548 33.871C36.0452 33.6903 36.0452 33.5097 36.0452 33.329V20.8645C36.0452 20.6839 36.0452 20.5032 35.9548 20.3226C37.0387 19.7806 37.8516 18.6065 37.8516 17.3419C37.8516 17.2516 37.8516 17.2516 37.8516 17.1613H38.0323C38.9355 17.1613 39.6581 16.4387 39.6581 15.5355V13.729C39.6581 13.2774 39.4774 12.8258 39.1161 12.5548C39.1161 12.4645 39.1161 12.4645 39.2065 12.3742C39.3871 11.6516 39.1161 10.929 38.4839 10.5677L22.0452 0.270968C21.5032 -0.0903226 20.871 -0.0903226 20.329 0.270968L3.89032 10.6581C3.25806 11.0194 2.9871 11.7419 3.16774 12.4645C3.16774 12.5548 3.16774 12.5548 3.25806 12.6452C2.9871 12.9161 2.80645 13.3677 2.80645 13.8194V15.6258C2.80645 16.529 3.52903 17.2516 4.43226 17.2516H4.6129C4.6129 17.3419 4.6129 17.3419 4.6129 17.4323C4.6129 18.7871 5.33548 19.871 6.50968 20.4129C6.41935 20.5935 6.41935 20.7742 6.41935 20.9548V33.329C6.41935 33.5097 6.41935 33.6903 6.50968 33.871C5.42581 34.4129 4.6129 35.5871 4.6129 36.8516C4.6129 36.9419 4.6129 36.9419 4.6129 37.0323H4.34194C2.53548 37.0323 1 38.4774 1 40.3742C1 41.2774 1.72258 42 2.62581 42H39.7484C40.6516 42 41.3742 41.2774 41.3742 40.3742C41.3742 38.4774 39.8387 37.0323 38.0323 37.0323ZM36.2258 37.0323H30.8968C30.8065 37.0323 30.7161 36.9419 30.7161 36.8516C30.7161 35.7677 31.6194 34.9548 32.6129 34.9548H34.4194C35.5032 34.9548 36.3161 35.8581 36.3161 36.8516C36.4065 36.9419 36.3161 37.0323 36.2258 37.0323ZM11.2065 33.7806C11.2968 33.6 11.2968 33.4194 11.2968 33.2387V20.8645C11.2968 20.6839 11.2968 20.5032 11.2065 20.3226C12.2903 19.7806 13.1032 18.6065 13.1032 17.3419C13.1032 17.2516 13.1032 17.2516 13.1032 17.1613H16.9871C16.9871 17.2516 16.9871 17.2516 16.9871 17.3419C16.9871 18.6968 17.7097 19.7806 18.8839 20.3226C18.7935 20.5032 18.7936 20.6839 18.7936 20.8645V33.2387C18.7936 33.4194 18.7935 33.6 18.8839 33.7806C17.8 34.3226 16.9871 35.4968 16.9871 36.7613C16.9871 36.8516 16.9871 36.8516 16.9871 36.9419H13.1032C13.1032 36.8516 13.1032 36.8516 13.1032 36.7613C13.1032 35.4968 12.2903 34.4129 11.2065 33.7806ZM24.0323 17.3419C24.0323 18.4258 23.129 19.2387 22.1355 19.2387H20.329C19.2452 19.2387 18.4323 18.3355 18.4323 17.3419C18.4323 17.2516 18.5226 17.1613 18.6129 17.1613H23.9419C23.9419 17.2516 24.0323 17.2516 24.0323 17.3419ZM22.2258 20.8645V33.2387C22.2258 33.329 22.1355 33.4194 22.0452 33.4194H20.2387C20.1484 33.4194 20.0581 33.329 20.0581 33.2387V20.8645C20.0581 20.7742 20.1484 20.6839 20.2387 20.6839H22.0452C22.1355 20.7742 22.2258 20.7742 22.2258 20.8645ZM18.3419 36.8516C18.3419 35.7677 19.2452 34.9548 20.2387 34.9548H22.0452C23.129 34.9548 23.9419 35.8581 23.9419 36.8516C23.9419 36.9419 23.8516 37.0323 23.7613 37.0323H18.4323C18.4323 37.0323 18.3419 36.9419 18.3419 36.8516ZM23.5806 33.7806C23.671 33.6 23.671 33.4194 23.671 33.2387V20.8645C23.671 20.6839 23.671 20.5032 23.5806 20.3226C24.6645 19.7806 25.4774 18.6065 25.4774 17.3419C25.4774 17.2516 25.4774 17.2516 25.4774 17.1613H29.3613C29.3613 17.2516 29.3613 17.2516 29.3613 17.3419C29.3613 18.6968 30.0839 19.7806 31.2581 20.3226C31.1677 20.5032 31.1677 20.6839 31.1677 20.8645V33.2387C31.1677 33.4194 31.1677 33.6 31.2581 33.7806C30.1742 34.3226 29.3613 35.4968 29.3613 36.7613C29.3613 36.8516 29.3613 36.8516 29.3613 36.9419H25.4774C25.4774 36.8516 25.4774 36.8516 25.4774 36.7613C25.4774 35.4968 24.6645 34.4129 23.5806 33.7806ZM34.6 20.8645V33.2387C34.6 33.329 34.5097 33.4194 34.4194 33.4194H32.6129C32.5226 33.4194 32.4323 33.329 32.4323 33.2387V20.8645C32.4323 20.7742 32.5226 20.6839 32.6129 20.6839H34.4194C34.5097 20.7742 34.6 20.7742 34.6 20.8645ZM36.4065 17.3419C36.4065 18.4258 35.5032 19.2387 34.5097 19.2387H32.7032C31.6194 19.2387 30.8065 18.3355 30.8065 17.3419C30.8065 17.2516 30.8968 17.1613 30.9871 17.1613H36.2258C36.3161 17.2516 36.4065 17.2516 36.4065 17.3419ZM4.70323 11.9226L21.1419 1.44516H21.2323H21.3226L37.7613 11.9226C37.7613 11.9226 37.8516 12.0129 37.8516 12.1032C37.8516 12.1935 37.7613 12.1935 37.671 12.1935H4.79355C4.79355 12.1935 4.70323 12.1935 4.6129 12.1032C4.6129 12.0129 4.6129 11.9226 4.70323 11.9226ZM4.25161 15.6258V13.8194C4.25161 13.729 4.34194 13.6387 4.43226 13.6387H4.79355H37.671H38.0323C38.1226 13.6387 38.2129 13.729 38.2129 13.8194V15.6258C38.2129 15.7161 38.1226 15.8065 38.0323 15.8065H36.2258H30.8968H23.8516H18.5226H11.4774H6.14839H4.34194C4.25161 15.7161 4.25161 15.7161 4.25161 15.6258ZM6.14839 17.2516H11.4774C11.5677 17.2516 11.6581 17.3419 11.6581 17.4323C11.6581 18.5161 10.7548 19.329 9.76129 19.329H7.95484C6.87097 19.329 6.05806 18.4258 6.05806 17.4323C5.96774 17.2516 6.05806 17.2516 6.14839 17.2516ZM7.77419 33.329V20.8645C7.77419 20.7742 7.86452 20.7742 7.95484 20.7742H9.76129C9.85161 20.7742 9.94194 20.8645 9.94194 20.9548V33.329C9.85161 33.4194 9.76129 33.4194 9.67097 33.4194H7.86452C7.86452 33.4194 7.77419 33.4194 7.77419 33.329ZM5.96774 36.8516C5.96774 35.7677 6.87097 34.9548 7.86452 34.9548H9.67097C10.7548 34.9548 11.5677 35.8581 11.5677 36.8516C11.5677 36.9419 11.4774 37.0323 11.3871 37.0323H6.14839C6.05806 37.0323 5.96774 36.9419 5.96774 36.8516ZM39.7484 40.5548H2.62581C2.53548 40.5548 2.44516 40.4645 2.44516 40.3742C2.44516 39.2903 3.34839 38.4774 4.34194 38.4774H6.14839H11.4774H18.5226H23.8516H30.8968H36.2258H38.0323C39.1161 38.4774 39.929 39.3806 39.929 40.3742C39.929 40.4645 39.8387 40.5548 39.7484 40.5548Z" fill="#6788B8"/>
<path d="M18.7935 10.1162H23.5806C24.3032 10.1162 24.9355 9.66458 25.1161 8.942C25.2968 8.21941 25.0258 7.49683 24.4838 7.13554L22.1355 5.50974C21.5935 5.14845 20.8709 5.14845 20.329 5.50974L17.8903 7.22587C17.258 7.58716 17.0774 8.30974 17.258 9.03232C17.4387 9.66458 18.0709 10.1162 18.7935 10.1162ZM18.7032 8.40006L21.0516 6.77425H21.1419H21.2322L23.5806 8.40006C23.5806 8.40006 23.6709 8.49038 23.6709 8.58071C23.6709 8.67103 23.5806 8.67103 23.4903 8.67103H18.7032C18.7032 8.67103 18.6129 8.67103 18.5226 8.58071C18.6129 8.49038 18.7032 8.40006 18.7032 8.40006Z" fill="#6788B8"/>
</svg>
