<svg width="135" height="54" viewBox="0 0 135 54" fill="none" xmlns="http://www.w3.org/2000/svg">
<g clip-path="url(#clip0_1489_8374)">
<mask id="mask0_1489_8374" style="mask-type:luminance" maskUnits="userSpaceOnUse" x="-15" y="-3" width="167" height="61">
<path d="M-14.2622 57.5649H151.712V-2.91275H-14.2622V57.5649Z" fill="white"/>
</mask>
<g mask="url(#mask0_1489_8374)">
<path d="M34.7101 37.6903H34.6967L34.0266 39.5647H35.3809L34.7101 37.6903ZM34.1988 36.7799H35.2477L37.0663 41.3223H36.0376L35.6395 40.2801H33.7609L33.3561 41.3223H32.394L34.1988 36.7799Z" fill="#878384"/>
<path d="M37.543 36.7799H40.2774V37.4951H38.4717V38.6143H40.1247V39.3307H38.4717V40.6054H40.2902V41.3223H37.543V36.7799Z" fill="#878384"/>
<path d="M42.2343 38.7187H42.5396C42.9975 38.7187 43.5224 38.654 43.5224 38.088C43.5224 37.5411 43.004 37.4951 42.5396 37.4951H42.2343V38.7187ZM41.3052 36.7799H42.3077C43.3026 36.7799 44.4908 36.7463 44.4908 38.0095C44.4908 38.5426 44.1263 38.9863 43.5352 39.0643V39.0767C43.7876 39.0963 43.9334 39.3431 44.0265 39.5455L44.7697 41.3223H43.7343L43.1768 39.904C43.0437 39.5647 42.9249 39.4351 42.5334 39.4351H42.2343V41.3223H41.3052V36.7799Z" fill="#878384"/>
<path d="M47.4041 40.6849C48.3535 40.6849 48.7055 39.8576 48.7055 39.038C48.7055 38.2371 48.3271 37.4172 47.4041 37.4172C46.4816 37.4172 46.1035 38.2371 46.1035 39.038C46.1035 39.8576 46.4552 40.6849 47.4041 40.6849ZM47.4041 36.7016C48.8576 36.7016 49.6739 37.6638 49.6739 39.038C49.6739 40.4103 48.8712 41.3999 47.4041 41.3999C45.9177 41.3999 45.1348 40.4295 45.1348 39.038C45.1348 37.6447 45.9313 36.7016 47.4041 36.7016Z" fill="#878384"/>
<path d="M52.9338 37.6129C52.6421 37.4882 52.317 37.4172 51.9913 37.4172C51.6729 37.4172 51.2612 37.5536 51.2612 38.0489C51.2612 38.8356 53.2919 38.504 53.2919 40.0267C53.2919 41.0223 52.4889 41.3999 51.5534 41.3999C51.049 41.3999 50.8235 41.3343 50.3656 41.2248L50.4518 40.4049C50.7704 40.5735 51.1352 40.6849 51.5 40.6849C51.852 40.6849 52.3235 40.5088 52.3235 40.0993C52.3235 39.2332 50.2925 39.5912 50.2925 38.0881C50.2925 37.0728 51.0954 36.7016 51.9117 36.7016C52.3099 36.7016 52.6821 36.7536 53.0204 36.8641L52.9338 37.6129Z" fill="#878384"/>
<path d="M54.988 38.8814H55.3138C55.7784 38.8814 56.196 38.7322 56.196 38.2038C56.196 37.678 55.7915 37.4951 55.3138 37.4951H54.988V38.8814ZM54.0591 36.7799H55.234C56.2425 36.7799 57.1652 37.0655 57.1652 38.1522C57.1652 39.2135 56.3756 39.5971 55.3797 39.5971H54.988V41.3223H54.0591V36.7799Z" fill="#878384"/>
<path d="M59.3072 37.6903H59.2941L58.6236 39.5647H59.978L59.3072 37.6903ZM58.7967 36.7799H59.8449L61.6635 41.3223H60.6345L60.2364 40.2801H58.3585L57.953 41.3223H56.9912L58.7967 36.7799Z" fill="#878384"/>
<path d="M65.4326 41.2568C65.0944 41.3343 64.7294 41.3999 64.3777 41.3999C62.8782 41.3999 61.8354 40.6639 61.8354 39.1284C61.8354 37.5737 62.8049 36.7016 64.3777 36.7016C64.6827 36.7016 65.0875 36.7599 65.4259 36.89L65.3599 37.6585C65.008 37.4632 64.6894 37.4172 64.3572 37.4172C63.4018 37.4172 62.8049 38.1327 62.8049 39.0644C62.8049 39.9874 63.389 40.6849 64.3777 40.6849C64.7423 40.6849 65.174 40.6055 65.3935 40.4951L65.4326 41.2568Z" fill="#878384"/>
<path d="M66.4365 36.7799H69.1721V37.4951H67.3666V38.6143H69.0188V39.3307H67.3666V40.6054H69.1852V41.3223H66.4365V36.7799Z" fill="#878384"/>
<path d="M74.5898 40.6054H75.106C75.8828 40.6054 76.6334 40.0403 76.6334 39.0503C76.6334 38.0614 75.8828 37.4951 75.106 37.4951H74.5898V40.6054ZM73.6597 36.7799H74.9265C76.3479 36.7799 77.6016 37.2483 77.6016 39.0503C77.6016 40.8534 76.3479 41.3223 74.9265 41.3223H73.6597V36.7799Z" fill="#878384"/>
<path d="M78.4385 36.7799H81.1741V37.4951H79.3676V38.6143H81.0207V39.3307H79.3676V40.6054H81.1872V41.3223H78.4385V36.7799Z" fill="#878384"/>
<path d="M82.2363 36.7799H84.8112V37.4951H83.1657V38.6143H84.7312V39.3307H83.1657V41.3223H82.2363V36.7799Z" fill="#878384"/>
<path d="M85.6553 36.7799H88.389V37.4951H86.5835V38.6143H88.2363V39.3307H86.5835V40.6054H88.403V41.3223H85.6553V36.7799Z" fill="#878384"/>
<path d="M89.4316 36.7799H90.572L92.3384 40.1758H92.3515V36.7799H93.2407V41.3223H92.1051L90.3329 37.9248H90.3198V41.3223H89.4316V36.7799Z" fill="#878384"/>
<path d="M97.6535 41.2568C97.3149 41.3343 96.9513 41.3999 96.5998 41.3999C95.0994 41.3999 94.0566 40.6639 94.0566 39.1284C94.0566 37.5737 95.0268 36.7016 96.5998 36.7016C96.9039 36.7016 97.3094 36.7599 97.6481 36.89L97.5811 37.6585C97.2294 37.4632 96.9113 37.4172 96.5784 37.4172C95.624 37.4172 95.0268 38.1327 95.0268 39.0644C95.0268 39.9874 95.6099 40.6849 96.5998 40.6849C96.9644 40.6849 97.3949 40.6055 97.6135 40.4951L97.6535 41.2568Z" fill="#878384"/>
<path d="M98.6577 36.7799H101.392V37.4951H99.5862V38.6143H101.239V39.3307H99.5862V40.6054H101.405V41.3223H98.6577V36.7799Z" fill="#878384"/>
<path d="M108.119 37.6129C107.826 37.4882 107.502 37.4172 107.177 37.4172C106.857 37.4172 106.446 37.5536 106.446 38.0489C106.446 38.8356 108.477 38.504 108.477 40.0267C108.477 41.0223 107.674 41.3999 106.737 41.3999C106.233 41.3999 106.008 41.3343 105.55 41.2248L105.636 40.4049C105.954 40.5735 106.32 40.6849 106.685 40.6849C107.036 40.6849 107.508 40.5088 107.508 40.0993C107.508 39.2332 105.476 39.5912 105.476 38.0881C105.476 37.0728 106.28 36.7016 107.097 36.7016C107.494 36.7016 107.866 36.7536 108.204 36.8641L108.119 37.6129Z" fill="#878384"/>
<path d="M109.279 36.7799H112.013V37.4951H110.209V38.6143H111.861V39.3307H110.209V40.6054H112.027V41.3223H109.279V36.7799Z" fill="#878384"/>
<path d="M116.224 41.2568C115.885 41.3343 115.519 41.3999 115.168 41.3999C113.667 41.3999 112.626 40.6639 112.626 39.1284C112.626 37.5737 113.595 36.7016 115.168 36.7016C115.473 36.7016 115.878 36.7599 116.216 36.89L116.151 37.6585C115.799 37.4632 115.479 37.4172 115.148 37.4172C114.192 37.4172 113.595 38.1327 113.595 39.0644C113.595 39.9874 114.179 40.6849 115.168 40.6849C115.533 40.6849 115.964 40.6055 116.184 40.4951L116.224 41.2568Z" fill="#878384"/>
<path d="M116.992 36.78H117.92V39.402C117.92 40.1759 118.172 40.6849 118.883 40.6849C119.593 40.6849 119.845 40.1759 119.845 39.402V36.78H120.775V39.6825C120.775 40.8983 120.071 41.3999 118.883 41.3999C117.694 41.3999 116.992 40.8983 116.992 39.6825V36.78Z" fill="#878384"/>
<path d="M122.719 38.7187H123.024C123.482 38.7187 124.006 38.654 124.006 38.088C124.006 37.5411 123.488 37.4951 123.024 37.4951H122.719V38.7187ZM121.79 36.7799H122.791C123.786 36.7799 124.975 36.7463 124.975 38.0095C124.975 38.5426 124.61 38.9863 124.02 39.0643V39.0767C124.271 39.0963 124.418 39.3431 124.51 39.5455L125.255 41.3223H124.219L123.661 39.904C123.529 39.5647 123.41 39.4351 123.017 39.4351H122.719V41.3223H121.79V36.7799Z" fill="#878384"/>
<path d="M125.958 36.7799H126.886V41.3223H125.958V36.7799Z" fill="#878384"/>
<path d="M128.64 37.4951H127.389V36.7799H130.82V37.4951H129.57V41.3223H128.64V37.4951Z" fill="#878384"/>
<path d="M132.478 39.5259L130.926 36.7799H131.926L132.968 38.6862L134.033 36.7799H134.994L133.407 39.5259V41.3223H132.478V39.5259Z" fill="#878384"/>
<path d="M71.785 39.0791C71.785 39.3194 71.5869 39.5132 71.3421 39.5132C71.0975 39.5132 70.8994 39.3194 70.8994 39.0791C70.8994 38.8393 71.0975 38.6448 71.3421 38.6448C71.5869 38.6448 71.785 38.8393 71.785 39.0791Z" fill="#878384"/>
<path d="M103.863 39.0791C103.863 39.3194 103.663 39.5132 103.419 39.5132C103.174 39.5132 102.977 39.3194 102.977 39.0791C102.977 38.8393 103.174 38.6448 103.419 38.6448C103.663 38.6448 103.863 38.8393 103.863 39.0791Z" fill="#878384"/>
<path d="M32.4072 30.4722L34.3537 29.1873C36.6925 30.3697 39.6272 30.5294 40.684 30.5294C43.4589 30.5294 44.6455 29.573 44.6455 28.7873V28.7506C44.6455 28.0625 43.9116 27.6305 41.1996 27.2324C36.9442 26.6161 33.5433 26.0104 33.5433 23.5495V23.5131C33.5433 21.1575 36.2913 19.4546 41.0886 19.4546C44.4869 19.4546 47.1427 20.0343 49.3137 21.14L47.6987 22.3972C45.8711 21.5813 43.893 21.3971 42.122 21.3971C39.9999 21.3971 38.3206 22.0026 38.3206 22.8581V22.8948C38.3206 23.5294 39.6324 23.9869 42.4023 24.3855C47.0003 25.0199 49.2958 26.0324 49.2958 28.4064V28.4433C49.2958 31.0347 46.6293 32.5747 41.7739 32.5747C38.233 32.5747 34.8633 31.8684 32.4072 30.4722Z" fill="#6A6567"/>
<path d="M59.9341 28.0455L56.8813 22.9826L54.1541 28.0455H59.9341ZM60.1991 21.3037L66.7947 32.2324H62.3077L61.0714 30.0246H53.0889L51.8895 32.2324H49.2441L55.9995 19.781H58.0886C58.0886 19.781 59.1919 19.8093 60.1991 21.3037Z" fill="#6A6567"/>
<path d="M110.536 28.0455L107.485 22.9826L104.757 28.0455H110.536ZM110.801 21.3037L117.398 32.2324H112.91L111.674 30.0246H103.692L102.492 32.2324H99.8472L106.603 19.781H108.691C108.691 19.781 109.795 19.8093 110.801 21.3037Z" fill="#6A6567"/>
<path d="M67.7627 19.8698H81.6097L81.0806 21.82H71.6694V25.6976H79.2263L78.6965 27.6774H71.6694V32.2324H67.7627V19.8698Z" fill="#6A6567"/>
<path d="M123.662 21.5841L131.987 27.7071V19.8698H135V32.2324H133.654C131.785 32.2324 130.812 31.5272 130.812 31.5272L121.452 24.8156V32.2324H118.439V19.8698H119.616C119.616 19.8698 121.226 19.781 123.662 21.5841Z" fill="#6A6567"/>
<path d="M91.4905 26.1415C93.2222 26.1415 94.219 25.0136 94.219 24.1123V23.9117C94.219 22.9403 93.1691 22.1453 91.4646 22.1453H86.7006V26.1415H91.4905ZM93.7003 30.8195L91.3972 28.2997H86.7006V32.2324H82.8325V19.8698H90.7976C93.6049 19.8698 95.5468 20.2249 96.78 21.073C97.8559 21.7789 98.4062 22.7328 98.4062 23.9514V23.9633C98.4062 25.8526 97.4563 27.2697 95.1736 27.9229L99.5559 32.2324H97.2849C94.9217 32.2324 93.7003 30.8195 93.7003 30.8195Z" fill="#6A6567"/>
<path d="M25.0456 21.4663C22.8608 16.5627 17.8142 13.2472 12.1049 13.515C6.40416 13.7845 1.71022 17.5476 0.00904835 22.6233C0.00619084 22.6327 0.00285751 22.6415 0 22.6509L0.0623883 22.6478C0.0642933 22.6429 0.0666747 22.6378 0.0688178 22.6327C1.98097 18.3635 6.61657 15.2285 12.1763 14.9662C17.7406 14.7038 22.6655 17.3938 24.9837 21.4705L25.0456 21.4663Z" fill="#1477C6"/>
<path d="M0.476074 32.2602C2.66207 37.1596 7.707 40.4716 13.4135 40.2019C19.1206 39.9334 23.8196 36.1604 25.516 31.0757L25.4514 31.078C23.5421 35.3509 18.9037 38.4894 13.3415 38.7514C7.78154 39.0132 2.85852 36.3274 0.538939 32.2556L0.476074 32.2602Z" fill="#1477C6"/>
<path d="M19.9169 31.5663C19.9169 33.7822 15.9386 36.0708 15.9386 36.0708C23.2835 33.442 23.9196 29.7776 23.9196 28.3803C23.9196 25.2943 20.7165 24.3159 17.1737 23.8293C14.4181 23.4513 12.3733 23.4468 10.4564 23.254C7.40841 22.9478 6.54353 22.1775 6.54353 21.0368C6.54353 18.879 10.8284 16.4898 10.8284 16.4898C3.8539 18.6883 2.31299 22.0631 2.31299 24.1677C2.31299 29.2389 12.551 29.1834 16.6663 29.6079C19.2071 29.8701 19.9267 30.7441 19.9169 31.5663Z" fill="#1477C6"/>
</g>
</g>
<defs>
<clipPath id="clip0_1489_8374">
<rect width="135" height="27.9" fill="white" transform="translate(0 13.5)"/>
</clipPath>
</defs>
</svg>
