<svg width="136" height="54" viewBox="0 0 136 54" fill="none" xmlns="http://www.w3.org/2000/svg">
<path d="M71.7474 4.79639C69.4537 6.62413 67.2546 9.04376 65.9781 11.6913C63.3542 17.1329 64.8086 22.1342 65.9332 25.3803C67.4645 29.8003 70.5657 32.0319 74.2617 33.6618C79.5316 35.9857 86.1558 36.1421 92.1707 34.5889C94.291 34.0414 97.5829 32.9029 98.3014 31.8407C99.0793 30.6907 99.2015 28.4667 97.5303 27.4898C95.9005 26.5371 95.7423 27.2646 90.8877 28.3426C87.5091 29.0928 83.8198 29.2231 79.3885 27.3103C76.594 26.1039 74.7029 24.2527 74.0569 21.7224C72.2038 14.4644 76.2073 11.7725 76.9883 11.2804L71.7474 4.79639Z" fill="url(#paint0_linear_1459_4867)"/>
<path d="M77.2696 13.3421C75.1834 13.0657 69.0633 12.4171 62.6602 11.2811C52.7518 9.52315 41.1028 7.08488 37.3836 6.82467C30.2262 6.3239 29.0327 15.6222 34.7465 17.2126C37.9825 18.1134 46.8873 17.1674 49.0518 21.4408C49.7112 22.7425 51.4552 27.6506 53.4308 33.7282C54.2054 36.1109 60.5045 35.7363 59.3333 30.6597C58.6645 27.7606 57.1416 19.9303 57.1416 19.9303C57.1416 19.9303 75.2097 21.8463 76.68 21.9735L77.2696 13.3421Z" fill="url(#paint1_linear_1459_4867)"/>
<path d="M86.7838 8.56004C89.0782 8.62095 93.0704 9.21024 94.8685 10.4131L104.895 12.389C104.99 6.82416 101.938 3.82966 98.5181 2.10345C95.9223 0.793176 92.2807 -0.27381 86.8155 -0.0405654C81.5897 0.182464 76.0953 1.32714 71.7129 4.81925L76.9505 11.3145C79.4218 9.75741 82.5276 8.44704 86.7838 8.56004Z" fill="url(#paint2_linear_1459_4867)"/>
<path d="M94.7089 10.3105C94.7089 10.3105 95.2369 10.6488 95.4662 10.8583C96.5583 11.8559 96.9199 13.0479 93.6069 13.596L96.2274 21.6985C102.189 20.101 104.82 16.5831 104.894 12.2879L94.7089 10.3105Z" fill="url(#paint3_linear_1459_4867)"/>
<path d="M93.7057 13.5828C90.7687 14.0687 85.0749 14.3829 77.2244 13.3428L76.6348 21.9742C89.3831 23.077 93.8663 22.3248 96.3262 21.6657L93.7057 13.5828Z" fill="url(#paint4_linear_1459_4867)"/>
<path d="M31.0698 44.7597C31.0698 44.9124 31.1901 45.0299 31.3343 45.0299H33.7389V51.4518L35.3239 51.4575V45.0298H37.7285C37.8727 45.0298 37.993 44.9124 37.993 44.7596V43.7677C37.993 43.615 37.8727 43.4976 37.7285 43.4976H31.3343C31.1901 43.4976 31.0698 43.615 31.0698 43.7677V44.7597Z" fill="#EF3346"/>
<path d="M36.709 48.5221C36.709 50.2137 38.1277 51.5294 39.883 51.5294C41.6504 51.5294 43.0691 50.2137 43.0691 48.5221C43.0691 46.8187 41.6504 45.4795 39.883 45.4795C38.1277 45.4795 36.709 46.8187 36.709 48.5221ZM38.4643 48.5103C38.4643 47.7115 39.0775 47.0536 39.883 47.0536C40.7006 47.0536 41.3138 47.7115 41.3138 48.5103C41.3138 49.3091 40.7006 49.9553 39.883 49.9553C39.0775 49.9553 38.4643 49.3091 38.4643 48.5103Z" fill="#EF3346"/>
<path d="M44.1059 49.7506C44.1059 51.0545 45.1038 51.5832 46.1137 51.5832C46.799 51.5832 47.5006 51.4883 47.9482 51.1468C48.678 50.59 48.0663 49.4588 47.0705 50.0191C46.7752 50.1852 46.2893 50.1006 46.2003 50.0645C45.9998 49.9832 45.6512 49.9147 45.6715 49.3511V46.8878H47.1409C48.2679 46.8878 48.2536 45.4664 47.1409 45.4664H45.6715V43.5207L44.1059 43.5151V45.4664H43.3364V46.8878H44.1059V49.7506Z" fill="#EF3346"/>
<path d="M48.5415 48.4992C48.5415 50.3436 49.9482 51.5301 51.4631 51.5301C52.2446 51.5301 53.0595 51.2011 53.336 50.7547V51.5379L54.7887 51.5323V46.2248C54.7887 45.186 53.3659 45.2366 53.3659 46.1675C53.0894 45.7211 52.2566 45.4801 51.4751 45.4801C49.9602 45.4801 48.5415 46.6431 48.5415 48.4992ZM50.2969 48.511C50.2969 47.7122 50.91 47.0543 51.7276 47.0543C52.5451 47.0543 53.1583 47.7122 53.1583 48.511C53.1583 49.3098 52.5451 49.9677 51.7276 49.9677C50.91 49.9677 50.2969 49.3098 50.2969 48.511Z" fill="#EF3346"/>
<path d="M57.7967 51.4574V44.2002C57.7967 43.2797 56.1543 43.3096 56.1543 44.2002V51.4569L57.7967 51.4574Z" fill="#EF3346"/>
<path d="M59.2186 43.4082C59.0623 43.4082 58.9541 43.5257 58.9541 43.6666V51.1835C58.9541 51.3362 59.0623 51.4537 59.2186 51.4537H64.5356L64.5412 49.8325H60.7575V48.2951H63.7241C63.8804 48.2951 63.9886 48.1659 63.9886 48.0249V46.9912C63.9886 46.8385 63.8804 46.721 63.7241 46.721H60.7575V45.0293H64.1758C64.332 45.0293 64.4523 44.9119 64.4523 44.7592V43.6784C64.4523 43.5257 64.332 43.4082 64.1758 43.4082H59.2186Z" fill="#EF3346"/>
<path d="M69.896 51.2192C69.896 51.3602 70.0283 51.4542 70.1605 51.4542H71.1971C71.3294 51.4542 71.4616 51.3602 71.4616 51.2192V48.0474C71.4616 46.6495 70.6553 45.3862 69.1043 45.3862C68.1906 45.3862 67.309 45.6545 66.9603 46.0657C66.9603 45.2233 65.5845 45.1867 65.5845 45.9916V51.4614L67.138 51.4671V48.239C67.138 46.2478 69.896 46.5656 69.896 48.239V51.2192Z" fill="#EF3346"/>
<path d="M82.5921 45.3364C81.7364 45.3364 81.0365 45.8438 80.7119 46.3489V45.9679C80.7119 45.2587 79.4082 45.1835 79.4082 45.993V51.4373L80.9402 51.457V48.6815C80.9402 47.8459 81.5011 46.924 82.104 46.826L82.7251 46.725C83.7147 46.725 83.5557 45.3364 82.5921 45.3364Z" fill="#EF3346"/>
<path d="M86.6923 52.5661C85.8988 52.5661 85.1408 52.5215 84.7342 52.2957C83.7601 51.7548 83.1844 52.943 83.7915 53.2935C84.6119 53.7672 85.0211 54.0004 86.56 54.0004C88.5318 54.0004 89.6012 52.9097 89.6012 51.312V45.9919C89.6012 45.2905 88.2374 45.2093 88.2374 45.9031V46.2672C87.9489 45.8208 87.1219 45.569 86.3284 45.569C84.8135 45.569 83.4429 46.7203 83.4429 48.5411C83.4429 50.362 84.8015 51.4897 86.4005 51.4897C87.17 51.4897 87.7952 51.1608 88.0597 50.7614V51.2533C88.0597 52.0168 87.618 52.5661 86.6923 52.5661ZM85.1982 48.5411C85.1982 47.7423 85.8114 47.1197 86.6169 47.1197C87.4345 47.1197 88.0477 47.7423 88.0477 48.5411C88.0477 49.3517 87.4345 49.9626 86.6169 49.9626C85.8114 49.9626 85.1982 49.3517 85.1982 48.5411Z" fill="#EF3346"/>
<path d="M91.6814 44.7659C92.1935 44.7659 92.6185 44.3289 92.6185 43.8154C92.6185 43.291 92.1935 42.854 91.6814 42.854C91.1584 42.854 90.7334 43.291 90.7334 43.8154C90.7334 44.3289 91.1584 44.7659 91.6814 44.7659ZM92.2262 51.4543C92.357 51.4543 92.455 51.345 92.455 51.2139V46.2853C92.455 45.2451 90.8859 45.2454 90.8859 46.2853V51.2139C90.8859 51.345 90.9949 51.4543 91.1257 51.4543H92.2262Z" fill="#EF3346"/>
<path d="M96.5341 45.3789C94.6951 45.3789 93.3711 46.7896 93.3711 48.5409C93.3711 50.2921 94.6706 51.642 96.5586 51.642C97.8704 51.642 98.6469 51.2547 99.1373 50.6223C99.4364 50.1042 98.7333 49.4715 98.106 49.8336C97.5506 50.2097 97.1716 50.1583 96.5954 50.1583C95.8966 50.1583 95.2836 49.684 95.1978 48.9422H99.1148C99.36 48.9422 99.4213 48.8084 99.4213 48.6625V48.3341C99.4213 46.814 98.4221 45.3789 96.5341 45.3789ZM97.8582 47.8477H95.2346C95.4062 47.191 95.9456 46.7896 96.5464 46.7896C97.1226 46.7896 97.6988 47.1301 97.8582 47.8477Z" fill="#EF3346"/>
<path d="M102.616 45.3335C101.006 45.3335 100.008 46.1878 100.008 47.2741C100.008 48.2383 100.669 48.8363 101.655 49.0316L102.654 49.2391C103.228 49.3489 103.527 49.471 103.527 49.7639C103.527 50.0202 103.253 50.2643 102.691 50.2643C102.092 50.2643 101.47 50.1529 101.084 49.8233C100.226 49.378 99.4639 50.3186 100.32 50.96C100.819 51.3017 101.605 51.619 102.629 51.619C104.289 51.619 105.374 50.7525 105.374 49.6052C105.374 48.4946 104.526 48.0064 103.49 47.8111L102.529 47.628C102.017 47.5304 101.83 47.3717 101.83 47.1398C101.83 46.8957 102.142 46.7005 102.616 46.7005C103.128 46.7005 103.56 46.7528 103.934 46.9969C104.686 47.4307 105.456 46.5055 104.757 45.9219C104.382 45.5924 103.827 45.3335 102.616 45.3335Z" fill="#EF3346"/>
<path d="M75.5624 45.3789C73.7235 45.3789 72.3994 46.7896 72.3994 48.5409C72.3994 50.2921 73.6989 51.642 75.5869 51.642C76.8987 51.642 77.6752 51.2547 78.1656 50.6223C78.4647 50.1042 77.7616 49.4715 77.1344 49.8336C76.5789 50.2097 76.1999 50.1583 75.6237 50.1583C74.9249 50.1583 74.3119 49.684 74.2261 48.9422H78.1431C78.3883 48.9422 78.4496 48.8084 78.4496 48.6625V48.3341C78.4496 46.814 77.4504 45.3789 75.5624 45.3789ZM76.8865 47.8477H74.2629C74.4345 47.191 74.974 46.7896 75.5747 46.7896C76.1509 46.7896 76.7271 47.1301 76.8865 47.8477Z" fill="#EF3346"/>
<defs>
<linearGradient id="paint0_linear_1459_4867" x1="72.7286" y1="10.7536" x2="91.9074" y2="31.5835" gradientUnits="userSpaceOnUse">
<stop stop-color="#0186F5"/>
<stop offset="0.13185" stop-color="#0186F5"/>
<stop offset="0.314591" stop-color="#35C2B0"/>
<stop offset="0.666984" stop-color="#AAD825"/>
<stop offset="1" stop-color="#FED700"/>
</linearGradient>
<linearGradient id="paint1_linear_1459_4867" x1="56.984" y1="33.0027" x2="57.1416" y2="19.9303" gradientUnits="userSpaceOnUse">
<stop stop-color="#FF7F00"/>
<stop offset="1" stop-color="#FE0201"/>
</linearGradient>
<linearGradient id="paint2_linear_1459_4867" x1="73.2389" y1="7.49167" x2="94.4122" y2="7.89803" gradientUnits="userSpaceOnUse">
<stop stop-color="#0186F5"/>
<stop offset="0.198316" stop-color="#0186F5"/>
<stop offset="1" stop-color="#3156FD"/>
</linearGradient>
<linearGradient id="paint3_linear_1459_4867" x1="95.5717" y1="15.4601" x2="97.5233" y2="11.6093" gradientUnits="userSpaceOnUse">
<stop stop-color="#8434D5"/>
<stop offset="0.854207" stop-color="#3156FD"/>
<stop offset="1" stop-color="#3156FD"/>
</linearGradient>
<linearGradient id="paint4_linear_1459_4867" x1="93.3983" y1="17.6076" x2="77.1417" y2="18.3776" gradientUnits="userSpaceOnUse">
<stop stop-color="#8434D5"/>
<stop offset="1" stop-color="#FE0201"/>
</linearGradient>
</defs>
</svg>
